<svg version="1.1" xmlns="http://www.w3.org/2000/svg" viewBox="0 0 1040.4459419250488 3129.6283798217773" width="2080.8918838500977" height="6259.256759643555">
  <!-- svg-source:excalidraw -->
  
  <defs>
    <style>
      @font-face {
        font-family: "Virgil";
        src: url("https://excalidraw.com/Virgil.woff2");
      }
      @font-face {
        font-family: "Cascadia";
        src: url("https://excalidraw.com/Cascadia.woff2");
      }
    </style>
  </defs>
  <rect x="0" y="0" width="1040.4459419250488" height="3129.6283798217773" fill="#ffffff"></rect><g stroke-linecap="round" transform="translate(25 10) rotate(0 413.5 205.5)"><path d="M-0.73 -0.3 C223.97 2.39, 449.82 1.27, 827.77 -0.15 M0.11 -0.31 C198.94 1.04, 397.69 1.72, 826.78 -0.23 M826.12 1.05 C829.19 91.15, 829.7 184.91, 828.08 410.17 M827.33 0.21 C825.95 134.07, 825.83 268.31, 827.52 411.47 M827.63 411.48 C560.17 414.28, 291.36 414, 0.51 410.42 M826.66 410.72 C576.52 408.44, 326.27 408.12, 0.08 410.95 M0.86 410.7 C1.84 291.97, 1.77 175.34, 0.41 1.01 M-0.34 410.83 C1.16 322.32, 0.9 234.21, 0.16 -0.43" stroke="#000000" stroke-width="1" fill="none"></path></g><g transform="translate(84 34) rotate(0 382.5 162.5)"><text x="0" y="18" font-family="Virgil, Segoe UI Emoji" font-size="20px" fill="#000000" text-anchor="start" style="white-space: pre;" direction="ltr">User Stories</text><text x="0" y="43" font-family="Virgil, Segoe UI Emoji" font-size="20px" fill="#000000" text-anchor="start" style="white-space: pre;" direction="ltr">    1. As a user, I would like to be able to see a list of articles.</text><text x="0" y="68" font-family="Virgil, Segoe UI Emoji" font-size="20px" fill="#000000" text-anchor="start" style="white-space: pre;" direction="ltr">    2. As a user, I would like to be able to see a list of topics.</text><text x="0" y="93" font-family="Virgil, Segoe UI Emoji" font-size="20px" fill="#000000" text-anchor="start" style="white-space: pre;" direction="ltr">    3. As a user, I would like to be able to see a list of articles by topic.</text><text x="0" y="118" font-family="Virgil, Segoe UI Emoji" font-size="20px" fill="#000000" text-anchor="start" style="white-space: pre;" direction="ltr">    4. As a user, I would like to be able to see a list of users.</text><text x="0" y="143" font-family="Virgil, Segoe UI Emoji" font-size="20px" fill="#000000" text-anchor="start" style="white-space: pre;" direction="ltr">    5. As a user, I would like to be able to see a list of articles by user.</text><text x="0" y="168" font-family="Virgil, Segoe UI Emoji" font-size="20px" fill="#000000" text-anchor="start" style="white-space: pre;" direction="ltr">    6. As a user, I would like to be able to see one article in focus,</text><text x="0" y="193" font-family="Virgil, Segoe UI Emoji" font-size="20px" fill="#000000" text-anchor="start" style="white-space: pre;" direction="ltr">        including votes and comments.</text><text x="0" y="218" font-family="Virgil, Segoe UI Emoji" font-size="20px" fill="#000000" text-anchor="start" style="white-space: pre;" direction="ltr">    7. As a user, I would like to be able to comment on an article.</text><text x="0" y="243" font-family="Virgil, Segoe UI Emoji" font-size="20px" fill="#000000" text-anchor="start" style="white-space: pre;" direction="ltr">    8. As a user, I would like to vote on an article.</text><text x="0" y="268" font-family="Virgil, Segoe UI Emoji" font-size="20px" fill="#000000" text-anchor="start" style="white-space: pre;" direction="ltr">    9. Any Create, Update or Delete operations should only be available to </text><text x="0" y="293" font-family="Virgil, Segoe UI Emoji" font-size="20px" fill="#000000" text-anchor="start" style="white-space: pre;" direction="ltr">        the active user.</text><text x="0" y="318" font-family="Virgil, Segoe UI Emoji" font-size="20px" fill="#000000" text-anchor="start" style="white-space: pre;" direction="ltr">    10. As a user, I would like to be able to make myself active on the app.</text></g><g stroke-linecap="round" transform="translate(25 503) rotate(0 156.5 236.5)"><path d="M-1.3 0.92 C86.6 -0.98, 170.44 -1.36, 312.92 -0.76 M-0.51 -0.57 C89.2 -0.8, 176.98 -0.34, 313.57 0.11 M312.69 -0.87 C311.33 157.99, 310.96 314.83, 313.86 472.95 M313.19 -0.14 C312.15 173.9, 312.05 347.96, 313.35 472.81 M312.66 472.14 C192.92 469.69, 70.63 471.24, 1.1 473.96 M312.55 472.73 C231.89 471.71, 149.85 472.61, -0.07 473.56 M0.71 473.65 C0.61 306.09, 1.61 137.09, -0.34 0.35 M0.05 473.15 C-1.49 285.81, -1.68 97.65, 0.09 0.21" stroke="#000000" stroke-width="1" fill="none"></path></g><g stroke-linecap="round" transform="translate(33 512) rotate(0 148.5 21)"><path d="M-0.58 -0.21 C92.9 -2.41, 186.68 -0.58, 296.57 -0.09 M0.4 -0.43 C118.53 -1.13, 236.73 -2.24, 297.65 0.31 M298.93 1.75 C296.8 10.32, 297.53 21.82, 298.29 42.73 M297.9 0.48 C296.61 9.87, 297.91 18.09, 297.54 42.16 M298.31 42.16 C188.59 42.52, 83.44 43.74, -1.38 42.49 M296.68 42.64 C179.94 43.35, 62.86 43.47, 0.32 42.16 M-0.89 42.94 C-2.25 30.1, 0.08 18.74, -0.99 -1.91 M-0.01 41.71 C-0.77 31.82, -0.95 19.77, 0.56 0.56" stroke="#000000" stroke-width="1" fill="none"></path></g><g stroke-linecap="round" transform="translate(33 562) rotate(0 149 15)"><path d="M-0.91 -1.44 C112.32 0.41, 221.54 0.86, 296.86 1.35 M0.01 0.17 C77.24 1.66, 153.74 1.58, 297.64 0.54 M296.18 -1.05 C299.28 11.86, 297.4 23, 297.31 28.9 M298.56 -0.16 C297.35 7.86, 297.82 14.55, 297.6 30.14 M296.74 29.64 C191.35 32.35, 84.82 30.85, 1.1 29.35 M298.5 30.48 C224.2 31.44, 149.61 31.53, 0.39 29.44 M0.15 30.11 C0.01 18.66, 0.33 9.91, 1.62 -1.97 M-0.87 30.47 C0.04 23.18, 0.64 17.14, 0.41 -0.89" stroke="#000000" stroke-width="1" fill="none"></path></g><g stroke-linecap="round" transform="translate(41 569) rotate(0 28 8)"><path d="M1.7 -0.92 C16.94 -1.2, 29.85 0.93, 57.85 1.35 M-0.46 -0.68 C20.95 -0.32, 41.23 0.31, 55.83 0.08 M56.23 0.12 C57.29 3.32, 54.75 10.65, 57.29 14.62 M56.64 0.36 C56.36 4.85, 55.78 10.36, 55.34 15.4 M56.45 17.91 C40.13 14.31, 20.15 15.14, 0.98 15.99 M55.34 16.59 C43.01 17.13, 28.75 16.38, -0.64 16.62 M1.32 16.29 C-0.3 12.75, 0.93 8.31, -0.85 1.37 M-0.21 16.62 C-0.46 11.16, -0.41 6.71, 0.28 0.38" stroke="#000000" stroke-width="1" fill="none"></path></g><g stroke-linecap="round" transform="translate(114 568) rotate(0 28 8)"><path d="M0.61 -1.33 C17.96 1.34, 35.45 0.61, 56.41 -1.27 M0.28 0.83 C20.44 0.19, 40.86 0.96, 55.95 -0.53 M55 -0.42 C57.22 5.34, 55.66 11.61, 56.13 16.56 M56.31 0.39 C55.35 4.85, 55.7 11.38, 55.56 15.85 M57.76 15.74 C44.91 15.78, 32.96 16.62, 0.6 15.19 M55.87 16.37 C43.39 15.93, 31.59 15.71, 0.12 15.95 M-0.79 14.63 C1.3 9.46, 0.52 6.51, -1.5 0.58 M0.38 15.94 C0.39 9.09, 0.33 3.93, -0.55 0.29" stroke="#000000" stroke-width="1" fill="none"></path></g><g stroke-linecap="round" transform="translate(190 568) rotate(0 28 8)"><path d="M-1.8 -0.23 C20.74 1.87, 37.23 0.77, 55.22 0.48 M-0.82 0.19 C16.72 0.1, 34.29 -0.17, 56.06 0 M56.25 -1.54 C56.4 3.77, 54.65 10.27, 54.52 16.36 M56.77 -0.05 C55.54 5.8, 55.8 11.22, 55.43 16.32 M55.49 16.77 C35.75 17.24, 15.56 14.6, 0.37 17.59 M55.61 15.87 C38.13 15.45, 19.72 15.56, 0.85 15.18 M0.18 16.04 C1.56 11.44, -0.1 9.44, 0.08 -0.31 M0.2 16.16 C0.1 12.75, 0.08 8.85, -0.06 -0.07" stroke="#000000" stroke-width="1" fill="none"></path></g><g stroke-linecap="round" transform="translate(263 566) rotate(0 28 8)"><path d="M-1.87 0.72 C13.52 -0.34, 22.43 0.73, 55.86 0.96 M-0.69 0.36 C12.53 -0.03, 25.93 0.1, 56.76 -0.8 M57.46 -0.07 C55.5 4.89, 57.15 9.35, 57.18 15.33 M56.13 -0.48 C55.96 6.18, 56.66 11.93, 55.96 16.5 M56.95 15.92 C39.41 15.85, 22.27 15.36, 0.39 14.19 M55.85 16.98 C39.95 17.09, 22.58 16.4, 0.26 15.21 M0.33 16.82 C-1.38 10.57, 0.2 2.22, -1.15 0 M-0.13 16.28 C0.37 10.8, 0.21 4.89, -0.21 0.18" stroke="#000000" stroke-width="1" fill="none"></path></g><g stroke-linecap="round" transform="translate(33 599) rotate(0 148.5 183.5)"><path d="M0.08 -0.39 C101.34 -0.54, 201.02 0.83, 297.23 0.77 M0.07 0.23 C66.89 -0.79, 132.85 0.13, 297.1 -0.09 M297.29 -0.95 C298.24 102.39, 297.87 204.43, 296.63 366.94 M296.44 0.44 C297.69 121.18, 298.07 241.49, 296.71 367.45 M295.75 367.99 C228.23 368.44, 159.07 367.22, -1 367.07 M297.57 367.51 C201.29 368.34, 106.06 367.54, -0.11 367.48 M0.45 366.02 C-1.26 264.48, -0.97 161.95, 0.39 -0.51 M0.54 366.44 C2.14 290.23, 1.08 212.73, 0.14 -0.14" stroke="#000000" stroke-width="1" fill="none"></path></g><g transform="translate(30 464) rotate(0 12 12.5)"><text x="0" y="18" font-family="Virgil, Segoe UI Emoji" font-size="20px" fill="#000000" text-anchor="start" style="white-space: pre;" direction="ltr">"/"</text></g><g stroke-linecap="round" transform="translate(24.5 1036) rotate(0 156.5 236.5)"><path d="M1.38 -0.02 C108.6 0.8, 218.09 2.04, 314.35 -0.16 M-0.57 -0.36 C93.83 -1.59, 188.12 -1.03, 312.46 0.48 M313.5 -0.29 C311.32 146.22, 311.22 293.82, 312.69 472.31 M313.29 -0.06 C313.26 173.06, 313.41 346.09, 313.16 473.32 M311.82 472.96 C202.5 473.12, 93.47 473.12, 1.29 472.47 M313.39 473.5 C243.03 470.78, 172.71 470.76, 0.33 472.88 M-0.72 472.38 C-0.45 317.66, 1.17 164.1, 0.85 0.29 M-0.3 473.18 C-1.46 373.24, -1.06 273.1, -0.41 0.34" stroke="#000000" stroke-width="1" fill="none"></path></g><g stroke-linecap="round" transform="translate(32.5 1045) rotate(0 148.5 21)"><path d="M-0.02 0 C75.38 -1.21, 153.51 -0.73, 296.84 0.01 M-0.37 -0.3 C59.23 1.65, 119.56 1.21, 297.5 0.08 M296.36 -0.79 C295.42 8.94, 296.56 19.19, 295.44 43.32 M296.86 -0.56 C296.36 13.4, 296.1 27.57, 297.71 42.49 M296.96 40.6 C188.75 38.9, 79.25 41.51, -0.55 40.87 M297.52 42.04 C234.66 42.9, 172.73 43.53, -0.12 42.2 M-1.4 40.22 C-1.31 31.95, 1.55 20.07, 0.66 -1.77 M0.4 41.15 C0.59 27.3, 0.21 11.57, 0.77 -0.52" stroke="#000000" stroke-width="1" fill="none"></path></g><g stroke-linecap="round" transform="translate(32.5 1095) rotate(0 149 15)"><path d="M0 -1.46 C60.82 -0.15, 121.2 -0.14, 298.01 -1.46 M-0.3 -0.52 C103.83 1.16, 207.35 1.61, 298.08 -0.47 M297.21 -1.97 C297.16 10.97, 297.48 22.05, 299.32 30.48 M297.44 -0.22 C297.99 5.54, 298.55 12.77, 298.49 30.69 M296.6 31.24 C221.78 31.18, 149.43 29.39, -1.12 28.65 M298.04 29.58 C232.68 31.11, 168.28 31.43, 0.2 29.88 M-1.78 28.88 C2.12 21.43, 2.16 10.05, -1.77 1.03 M-0.85 30.49 C0.26 21.84, -0.72 14.24, -0.52 0.16" stroke="#000000" stroke-width="1" fill="none"></path></g><g stroke-linecap="round" transform="translate(40.5 1102) rotate(0 28 8)"><path d="M-1.98 1.24 C22 1.9, 44.24 0.01, 54.02 0.98 M-0.7 -0.16 C12.37 -0.53, 25.26 0.34, 55.37 0.93 M54.43 -0.81 C55.28 5.15, 54.7 12.46, 56.38 14.41 M55.82 -0.17 C55.59 6.13, 56.55 12.08, 56.55 15.61 M57.69 14.27 C45.55 17.28, 30.98 13.94, -1.83 14.36 M55.43 15.62 C35.58 16.49, 16.17 16.3, -0.16 16.43 M-0.9 17.5 C1.5 14.02, 0.64 7.55, 0.82 -0.39 M0.39 16.04 C0.02 11.53, 0.55 8.12, 0.12 -0.03" stroke="#000000" stroke-width="1" fill="none"></path></g><g stroke-linecap="round" transform="translate(113.5 1101) rotate(0 28 8)"><path d="M1.24 -0.23 C18.63 0.34, 33.49 -1.42, 56.98 -1.61 M-0.16 0.08 C13.22 1.07, 28.07 -0.24, 56.93 0.56 M55.19 -0.67 C55.38 3.04, 56.99 8.95, 54.41 17.05 M55.83 -0.39 C56.19 5.14, 56.3 9.69, 55.61 15.33 M54.27 17.69 C41.18 15.73, 21.21 14.64, -1.64 17.08 M55.62 15.41 C35.71 15.52, 14.77 15.52, 0.43 15.2 M1.5 17.39 C1.68 12.84, -1.28 9.46, -0.39 -1.07 M0.04 16.09 C-0.6 11.17, -0.28 5.24, -0.03 0.68" stroke="#000000" stroke-width="1" fill="none"></path></g><g stroke-linecap="round" transform="translate(189.5 1101) rotate(0 28 8)"><path d="M-0.23 1.89 C16.57 -0.33, 31.6 0.63, 54.39 -1.01 M0.08 -0.76 C15.23 0.2, 28.46 1.02, 56.56 -0.32 M55.33 -0.55 C54.6 5.22, 56.23 6.75, 57.05 15.77 M55.61 0.28 C56.53 4.3, 56.51 7.43, 55.33 15.98 M57.69 17.81 C43.79 13.99, 31.22 13.88, 1.08 17.41 M55.41 16.46 C38.76 16.06, 21.69 16.22, -0.8 15.3 M1.39 17.53 C0.61 11.21, 0.91 8.86, -1.07 0.64 M0.09 15.26 C0.54 12.14, 0.05 9.07, 0.68 -0.04" stroke="#000000" stroke-width="1" fill="none"></path></g><g stroke-linecap="round" transform="translate(262.5 1099) rotate(0 28 8)"><path d="M1.89 -0.22 C11.27 -1.91, 23.49 -1.55, 54.99 -0.81 M-0.76 0.68 C12.98 -0.68, 26.68 0.52, 55.68 -0.4 M55.45 -1.24 C56.98 3.61, 54.33 7.5, 55.77 15.11 M56.28 0.57 C56.36 5, 55.58 8.23, 55.98 15.24 M57.81 15.26 C32.95 14.64, 11.31 17.56, 1.41 16.1 M56.46 15.84 C42.64 15.51, 29.17 14.87, -0.7 15.11 M1.53 16.52 C-1.57 12.92, -0.54 7.13, 0.64 -1.35 M-0.74 16.62 C-0.43 10.54, -0.04 5.52, -0.04 -0.72" stroke="#000000" stroke-width="1" fill="none"></path></g><g stroke-linecap="round" transform="translate(32.5 1132) rotate(0 148.5 183.5)"><path d="M-0.16 0.01 C106.05 -1.36, 213.83 -2.82, 296.41 -1.04 M0.5 0.08 C83.81 2.34, 168.96 1.42, 296.71 -0.73 M296.03 0.82 C296.35 90.39, 296.86 183.07, 296.31 366.73 M297.44 0.3 C296.32 102.15, 295.38 204.88, 296.41 367.52 M296.45 365.87 C232.17 367.78, 170.84 370.03, 0.07 366.16 M296.88 367.2 C219.15 368.34, 140.95 367.5, -0.66 366.59 M0.41 365.9 C-1.34 222.19, -2.81 78.5, -1.05 0.61 M0.48 366.67 C-0.15 254.82, 0.28 142.67, -0.56 0.52" stroke="#000000" stroke-width="1" fill="none"></path></g><g transform="translate(29.5 997) rotate(0 49.5 12.5)"><text x="0" y="18" font-family="Virgil, Segoe UI Emoji" font-size="20px" fill="#000000" text-anchor="start" style="white-space: pre;" direction="ltr">"/articles"</text></g><g stroke-linecap="round" transform="translate(26.5 1576) rotate(0 156.5 236.5)"><path d="M-0.82 0.19 C92.21 -0.03, 183.32 -0.09, 312.42 -0.35 M-0.34 0.37 C113.42 -1.36, 225.78 -0.81, 312.73 -0.27 M312.99 0.59 C312.57 103.76, 312.22 205.35, 313.6 473.79 M312.61 0.24 C314.67 152.46, 314.39 305.03, 312.83 472.84 M312.9 472.3 C212.8 472.34, 112.37 471.09, -1.02 472.29 M312.99 473.66 C194.82 474.6, 75.9 475.83, 0.04 472.54 M0.43 472.46 C-1.41 319.75, -1.21 164.21, 0.81 -0.52 M-0.04 472.66 C0.56 328.02, 0.33 183.17, -0.17 0.03" stroke="#000000" stroke-width="1" fill="none"></path></g><g stroke-linecap="round" transform="translate(34.5 1585) rotate(0 148.5 21)"><path d="M0.2 -0.15 C82.27 -0.17, 164.47 0.66, 296.64 0.89 M0.38 0.61 C69.12 1.17, 139.01 0.76, 296.72 -0.61 M298.33 0.81 C298.61 11.05, 295.55 23.41, 298.78 42.45 M297.54 0.55 C296.87 15.36, 297.11 30.5, 296.64 42.2 M296.28 41.84 C208.71 41.28, 117.78 40.79, -0.74 43.16 M297.69 42.42 C189.98 42.06, 84.87 42.01, -0.48 42.19 M-1.21 43.2 C1.85 27.18, -1.59 10.87, -1.18 0.13 M-0.76 42.08 C0.14 30, 0.66 18.5, 0.07 0.14" stroke="#000000" stroke-width="1" fill="none"></path></g><g stroke-linecap="round" transform="translate(34.5 1635) rotate(0 149 15)"><path d="M-0.15 0 C88.34 -0.36, 178.95 -0.65, 298.89 -0.98 M0.61 -0.2 C105.07 -0.77, 209.61 -1.42, 297.39 -0.28 M298.81 1.82 C298.02 6.26, 299.36 16.79, 298.45 31.35 M298.55 0.01 C297.66 8.28, 297.36 15.71, 298.2 30.02 M297.84 31.35 C234.33 28.98, 170.74 28.18, 1.16 30.86 M298.42 29.38 C179.35 32.71, 60.57 31.57, 0.19 30.68 M1.2 31.73 C1.51 20.12, 1.68 12.48, 0.13 -0.5 M0.08 30.23 C-0.42 21.11, -0.36 10.79, 0.14 0.4" stroke="#000000" stroke-width="1" fill="none"></path></g><g stroke-linecap="round" transform="translate(42.5 1642) rotate(0 28 8)"><path d="M0 -1.95 C13.47 -0.76, 26.65 1.27, 54.67 1.04 M-0.28 0.17 C14.63 -0.85, 27.89 -1.29, 55.63 -0.5 M57.45 0.02 C55.11 5.87, 57.53 9.93, 57.08 15.49 M56 -0.06 C56.28 3.1, 55.8 6.96, 56.01 15.29 M57.83 15.23 C39.65 14.51, 22.15 17.52, 1.16 17.97 M55.16 16.12 C40.18 16.38, 21.91 16.58, 0.92 15.72 M1.38 17.33 C-1.27 11.89, -0.84 4.97, -0.4 0.34 M0.18 15.65 C0.72 11.02, 0.18 6.78, 0.32 0.38" stroke="#000000" stroke-width="1" fill="none"></path></g><g stroke-linecap="round" transform="translate(115.5 1641) rotate(0 28 8)"><path d="M-1.95 -0.09 C16.74 -0.49, 36.32 -1.33, 57.04 -0.95 M0.17 0.49 C19.31 -0.23, 38.57 -0.22, 55.5 -0.01 M56.02 -0.99 C57.15 7.29, 56.42 12.82, 55.49 14.6 M55.94 0.2 C55.78 5.37, 56.25 11.33, 55.29 15.95 M55.23 16.07 C40.51 15.51, 29.47 17.68, 1.97 15.97 M56.12 16.9 C34.03 14.88, 12.2 16.45, -0.28 16.48 M1.33 14.63 C1.37 11.23, 0.01 7.94, 0.34 -0.13 M-0.35 16.6 C-0.32 12.48, 0.1 9.17, 0.38 0.16" stroke="#000000" stroke-width="1" fill="none"></path></g><g stroke-linecap="round" transform="translate(191.5 1641) rotate(0 28 8)"><path d="M-0.09 -0.81 C15.74 1.76, 31.13 1.59, 55.05 1.03 M0.49 -0.38 C21.06 -0.92, 42.52 -0.59, 55.99 0.67 M55.01 1.09 C57.57 5.8, 57.23 10.38, 54.6 16.86 M56.2 -0.31 C55.71 5.84, 56.02 10.66, 55.95 15.61 M56.07 14.57 C38.81 17.36, 24.78 17.75, -0.03 17.87 M56.9 16.06 C35.35 16.32, 16.91 15.79, 0.48 15.39 M-1.37 17.46 C-1.08 10.35, -0.54 4.82, -0.13 -1.22 M0.6 15.69 C0.02 11.19, 0.29 6.53, 0.16 0.07" stroke="#000000" stroke-width="1" fill="none"></path></g><g stroke-linecap="round" transform="translate(264.5 1639) rotate(0 28 8)"><path d="M-0.81 -0.49 C18.01 -1.31, 34.64 -0.93, 57.03 1.66 M-0.38 -0.38 C14.43 -0.65, 30.01 -0.28, 56.67 0.4 M57.09 1.43 C56.36 7.34, 55.49 11.11, 56.86 16.88 M55.69 -0.29 C56.14 4.82, 55.28 9.56, 55.61 15.91 M54.57 15 C35.66 17.19, 14.13 15.99, 1.87 17.14 M56.06 15.35 C44.15 17.43, 31.52 16.99, -0.61 16.6 M1.46 15.06 C-0.03 9.42, 0.21 3.5, -1.22 0.12 M-0.31 16.05 C0.18 11.16, 0.45 5.83, 0.07 -0.51" stroke="#000000" stroke-width="1" fill="none"></path></g><g stroke-linecap="round" transform="translate(34.5 1672) rotate(0 148.5 183.5)"><path d="M-0.36 0.89 C59.15 1.66, 119.56 1.66, 298.23 -0.41 M-0.28 -0.61 C93.8 0.47, 188.14 1.33, 297.3 0.67 M298.11 0.28 C296.42 110.19, 294.5 221.84, 297.69 367.01 M296.78 0.12 C297.57 106.61, 297.52 214, 296.93 367.57 M296.26 368.16 C220.2 366.88, 141.67 366.81, 0.85 365.76 M296.52 367.19 C205.11 366.93, 112.21 366.68, 0.44 367.64 M-0.73 367.08 C1.64 226.75, 1.85 85.02, 0.1 0.29 M0.04 367.09 C-1.46 273.34, -1.59 179.14, -0.4 -0.37" stroke="#000000" stroke-width="1" fill="none"></path></g><g transform="translate(31.5 1537) rotate(0 94.5 12.5)"><text x="0" y="18" font-family="Virgil, Segoe UI Emoji" font-size="20px" fill="#000000" text-anchor="start" style="white-space: pre;" direction="ltr">"/articles/:articled"</text></g><g stroke-linecap="round" transform="translate(26.5 2113) rotate(0 156.5 236.5)"><path d="M-0.8 -0.61 C84.44 -0.45, 168.13 -1.81, 312.68 -1.22 M0.23 0.09 C65.54 0.4, 129.81 0.05, 312.38 -0.68 M312.81 -0.06 C314.64 120.14, 313.92 239.67, 313.25 472.2 M313.16 -0.02 C314.65 160.53, 314.65 320.56, 312.74 472.78 M312.11 472.21 C191.57 471.12, 67.12 472.08, -0.64 472.67 M313.7 473.19 C240.21 474.65, 167.25 474.2, -0.44 473.08 M0.38 472.64 C1.85 290.13, 1.65 108.62, -0.39 0.2 M0.12 473.25 C1.07 299.66, 0.66 125.11, 0.18 -0.15" stroke="#000000" stroke-width="1" fill="none"></path></g><g stroke-linecap="round" transform="translate(34.5 2122) rotate(0 148.5 21)"><path d="M-0.63 0.27 C110.74 0.98, 219.5 0.89, 295.74 -1.37 M0.1 0.72 C106.81 -0.58, 213.37 -1.35, 296.3 -0.34 M296.87 1.3 C297.25 14.4, 296.04 30.01, 295.21 42.77 M296.97 -0.46 C297.48 15.84, 297.18 32.04, 296.51 42.92 M296.18 43.38 C229.85 40.24, 163.72 39.96, -0.35 41.02 M297.2 42.38 C186.09 44.74, 74.21 43.71, 0.09 42.63 M-0.8 43.5 C-1.27 32.8, 0.25 20.66, 0.44 1.35 M0.56 42.85 C0.62 30.71, -1.13 19.98, -0.34 0.38" stroke="#000000" stroke-width="1" fill="none"></path></g><g stroke-linecap="round" transform="translate(34.5 2172) rotate(0 149 15)"><path d="M0.27 0.58 C102.7 0.12, 205.54 -0.32, 296.63 0.88 M0.72 -0.11 C82.8 -0.75, 164.71 -0.99, 297.66 0.37 M299.3 0.15 C297.61 8.62, 298.5 17.57, 298.77 31.77 M297.54 0.8 C297.65 7.26, 297.54 13.05, 298.92 29.26 M299.37 29.98 C233.18 29.76, 168.48 28.44, -0.98 31.11 M298.38 30.49 C193.37 30.61, 87.13 30.68, 0.63 29.59 M1.5 28.48 C0.91 22.82, -1 16.1, 1.35 -0.66 M0.85 30.98 C-0.15 17.67, 0.33 6.54, 0.38 -0.92" stroke="#000000" stroke-width="1" fill="none"></path></g><g stroke-linecap="round" transform="translate(42.5 2179) rotate(0 28 8)"><path d="M0.79 -0.33 C12.55 -0.56, 25.63 -1.96, 57.2 -0.45 M-0.15 0.16 C17.96 -1.42, 36.24 -1.01, 56.5 0.23 M56.12 -0.26 C55.14 4.91, 54.56 9.52, 57.41 14.81 M56.64 -0.37 C56.39 4.93, 55.6 11.51, 55.41 15.33 M55.97 15.48 C44.04 15.62, 28.96 15.2, 1.5 17.06 M56.66 16.77 C33.69 15.66, 11.45 17.14, -0.56 15.39 M-1.22 16.83 C0.06 9.81, 0.42 6.11, -0.53 1.37 M0.78 15.94 C-0.71 11.1, -0.36 5.85, -0.74 -0.13" stroke="#000000" stroke-width="1" fill="none"></path></g><g stroke-linecap="round" transform="translate(115.5 2178) rotate(0 28 8)"><path d="M-0.33 -1.12 C13.94 -1.93, 26.94 0.98, 55.55 0.64 M0.16 -0.63 C16.66 -0.87, 34.6 0.59, 56.23 -0.22 M55.74 -0.85 C56.56 3.27, 56.72 10.81, 54.81 16.59 M55.63 0.39 C55.47 4.35, 56.66 8.9, 55.33 15.5 M55.48 17.33 C41.4 15.52, 27.28 17.49, 1.06 17.98 M56.77 16.02 C37.05 16.49, 20.21 15.81, -0.61 16.43 M0.83 16 C-0.82 12.2, 0.96 7.16, 1.37 0.43 M-0.06 15.38 C0.19 10.03, 0.17 3.86, -0.13 0.01" stroke="#000000" stroke-width="1" fill="none"></path></g><g stroke-linecap="round" transform="translate(191.5 2178) rotate(0 28 8)"><path d="M-1.12 -0.46 C16.1 -1.76, 36.82 -0.36, 56.64 0.26 M-0.63 -0.87 C21.33 -0.55, 45.06 0.13, 55.78 -0.06 M55.15 0.45 C54.58 6.46, 57.42 10.49, 56.59 15.95 M56.39 -0.46 C55.74 4.8, 55.54 7.45, 55.5 15.56 M57.33 15.1 C33.51 14.53, 13.46 16.91, 1.98 16.54 M56.02 15.37 C36.45 17.28, 16.1 15.82, 0.43 15.6 M0 15.3 C0.48 11.08, -0.41 5.37, 0.43 0.9 M-0.62 16.33 C-0.43 10.14, -0.89 3.54, 0.01 -0.46" stroke="#000000" stroke-width="1" fill="none"></path></g><g stroke-linecap="round" transform="translate(264.5 2176) rotate(0 28 8)"><path d="M-0.46 -1.71 C17.15 1.51, 37.55 0.95, 56.26 1.96 M-0.87 -0.95 C15.52 0.86, 32.19 0.14, 55.94 0.65 M56.45 -1.43 C56.59 6.33, 54.78 10.43, 55.95 15.26 M55.54 -0.39 C56.66 5.48, 55.26 11.65, 55.56 16.75 M55.1 15.53 C37.95 17.87, 23.61 18.35, 0.54 17.02 M55.37 16.12 C36.34 15.45, 14.36 16.44, -0.4 16.75 M-0.7 16.36 C1 11.89, 1.28 9.26, 0.9 1.36 M0.33 15.73 C0.32 8.9, -0.12 3.28, -0.46 -0.07" stroke="#000000" stroke-width="1" fill="none"></path></g><g stroke-linecap="round" transform="translate(34.5 2209) rotate(0 148.5 183.5)"><path d="M-1.26 -1.37 C85.08 0.17, 168.85 0.69, 298.44 -0.22 M-0.7 -0.34 C94.32 2.08, 187.74 1.87, 297.48 0.06 M295.89 0.48 C296.89 103.26, 296.25 208.33, 296.43 367.99 M296.7 0.57 C297.67 92.63, 297.74 185.95, 297.58 366.99 M296.65 366.02 C216.78 366.8, 135.8 366.41, 0.76 367.98 M297.09 367.63 C184.6 365.18, 73.36 365.33, 0.55 366.44 M0.28 367.84 C-0.41 238.96, 0.33 109.5, 1.06 1.21 M-0.21 367.24 C1.19 259.48, 1.77 151.82, -0.05 -0.47" stroke="#000000" stroke-width="1" fill="none"></path></g><g transform="translate(31.5 2074) rotate(0 82.5 12.5)"><text x="0" y="18" font-family="Virgil, Segoe UI Emoji" font-size="20px" fill="#000000" text-anchor="start" style="white-space: pre;" direction="ltr">"/topics/:topicId"</text></g><g stroke-linecap="round" transform="translate(44.5 2216.75) rotate(0 139.5 28)"><path d="M0.7 -0.92 C98.5 0.02, 195.97 -0.31, 278.29 -0.89 M-0.47 0.39 C99.98 1.33, 199.28 1.15, 279.39 0.38 M277.09 0.43 C276.94 17.63, 279.81 33.88, 278.15 57.58 M279.85 -0.02 C279.32 19.74, 279.7 42.01, 278.27 56.55 M277.48 57.4 C207.84 58.72, 137.12 56.97, -0.64 56 M278.97 55.42 C176.46 53.69, 72.8 53.65, 0.14 55.36 M-0.17 54.27 C0.99 36.71, 1.57 13.55, -0.2 -1.38 M-0.02 55.14 C-0.62 35.47, -0.72 14.46, 0.81 -0.54" stroke="#000000" stroke-width="1" fill="none"></path></g><g stroke-linecap="round" transform="translate(45.5 2276.75) rotate(0 138.5 29.5)"><path d="M-0.92 0.75 C83.67 -0.51, 166.86 -1.68, 276.1 0.88 M0.39 0.34 C56.35 1.31, 111.81 1.7, 277.38 -0.11 M277.43 -1.59 C278.68 14.02, 278.93 24.63, 278.58 60.38 M276.98 0.03 C276.3 21.07, 277.91 40.59, 277.55 58.54 M278.4 58.83 C185.5 56.99, 90.77 56.25, 0 60.07 M276.42 59.45 C188.24 58.71, 99.83 59.07, -0.64 59.56 M-1.73 60.22 C1.15 40.68, -1.12 18.55, -1.38 1.35 M-0.86 58.21 C0.33 42.2, -0.11 27.99, -0.54 -0.37" stroke="#000000" stroke-width="1" fill="none"></path></g><g stroke-linecap="round" transform="translate(45.5 2344.75) rotate(0 140 111)"><path d="M0.74 0.15 C86.18 1.11, 170.75 0.39, 280.88 -1.52 M0.34 0.72 C76.09 -0.55, 152.57 -0.71, 279.89 -0.64 M278.63 1.4 C279.28 70.6, 277.44 139.33, 281.19 222.87 M280.03 -0.79 C281.99 75.51, 281 150.31, 279.61 222.31 M279.83 223.46 C179.75 223.67, 78.67 223.96, 1.06 222.29 M280.45 221.61 C220.88 219.95, 162.34 219.73, 0.56 222.32 M1.05 223.38 C1.72 137.6, -0.01 53.14, 1.16 -0.52 M-0.69 222.03 C-0.73 166.02, 0.75 110.27, -0.32 0.62" stroke="#000000" stroke-width="1" fill="none"></path></g><g stroke-linecap="round" transform="translate(45 1681.75) rotate(0 139.5 39.5)"><path d="M1.45 1.1 C60.62 1.28, 119.34 -1.13, 278.1 0.6 M0.52 -0.32 C95.27 -0.88, 191.37 0.38, 278.34 0.27 M279.22 -0.88 C280.42 17.97, 281.24 38.66, 280.89 80.65 M278.86 0.93 C279.3 23.61, 279.52 48.75, 278.54 78.34 M278.82 78.58 C218.12 78.93, 160.88 78.71, -1.05 79.05 M278.77 78.85 C188.54 80.59, 96.4 79.63, -0.14 79.59 M0.29 80.34 C2.6 50.9, 0.12 24.12, 0.87 1.64 M0.49 78.89 C-0.98 52.41, -1.13 27.06, -0.61 -0.16" stroke="#000000" stroke-width="1" fill="none"></path></g><g stroke-linecap="round" transform="translate(44 1767.75) rotate(0 140 132)"><path d="M0.22 1.03 C96.68 -0.24, 189.95 -0.18, 280.67 1.26 M0.38 -0.08 C91.83 -2.57, 183.8 -2.07, 279.53 -0.13 M279.79 -1.37 C280.15 69.13, 279.67 135.75, 278.48 263.27 M279.67 -0.43 C277.76 71.75, 277.41 142.95, 280.74 264.07 M281.3 263.1 C224.38 261.87, 165.7 262.89, 0.72 264.5 M279.68 263.31 C201.26 263.2, 121.93 263.1, 0.5 263.34 M-0.81 263.33 C-1.36 202.87, -1.94 144.53, 0.59 -1.03 M0.51 263.62 C-0.42 196.53, -0.31 127.32, 0.47 0.36" stroke="#000000" stroke-width="1" fill="none"></path></g><g stroke-linecap="round" transform="translate(53 1775.75) rotate(0 131.5 29.5)"><path d="M0.46 -0.25 C95.4 0.84, 191.66 0.48, 261.67 0.72 M0.32 0.73 C89.14 0.5, 177.68 1.42, 263.53 -0.68 M263.04 1.87 C264.28 20.65, 261.35 43.47, 263.88 60.51 M263.46 0.07 C263.2 19.88, 261.87 42.12, 263.39 59.15 M261.59 59.57 C164.9 58.51, 65.46 58.98, 1.41 58.04 M263.17 58.92 C172.12 59.49, 82.06 58.89, 0.66 59.63 M0.42 58.88 C1.9 44.34, 1.56 28.39, 0.82 0.6 M-0.45 58.35 C0.54 45.19, -0.32 31.52, -0.26 0.81" stroke="#000000" stroke-width="1" fill="none"></path></g><g stroke-linecap="round" transform="translate(52.5 1844.25) rotate(0 131.5 29.5)"><path d="M0.57 1.15 C55.16 2.8, 110.32 3.26, 262.04 0.72 M-0.08 -0.13 C92.97 0.14, 185.08 0.23, 263.63 -0.36 M262.88 1.55 C263.65 15.37, 262.76 29.15, 263.6 57.77 M262.35 0.22 C263.51 13.96, 263.92 28.93, 263.81 58.8 M262.27 60.44 C159.52 60.08, 58.49 58.05, -0.49 58.71 M262.36 59.57 C163.81 59, 65.42 60.13, -0.4 58.36 M-1.36 60.35 C0.44 41.3, 1.73 26.63, 0.62 -1.33 M-0.21 59.92 C-0.74 39.25, -0.22 18.17, -0.53 0.44" stroke="#000000" stroke-width="1" fill="none"></path></g><g stroke-linecap="round" transform="translate(51.5 1914.25) rotate(0 131.5 29.5)"><path d="M0.46 -0.73 C75.17 -2.14, 147.94 -1.01, 261.44 -0.49 M0.15 -0.64 C74.63 -2.21, 147.74 -1.75, 263.74 -0.4 M263.83 -1.36 C264.25 12.94, 261.93 27.18, 264.09 59.62 M262.85 -0.21 C264.21 13.42, 264.21 27.71, 263.49 58.47 M262.18 58.94 C173.79 61.11, 82.85 59.45, 0.65 58.54 M263.46 59.66 C173.96 61.22, 85.02 61.4, -0.76 59.37 M-0.05 60.9 C1.21 45.97, -1.53 31.14, -1.27 0.94 M0.94 58.09 C0.44 41.82, -0.37 23.45, 0.01 -0.98" stroke="#000000" stroke-width="1" fill="none"></path></g><g stroke-linecap="round" transform="translate(39.5 1142.25) rotate(0 139.5 39.5)"><path d="M-0.92 -0.85 C90.94 -1.65, 183.61 -0.48, 280.28 -0.77 M-0.38 -0.08 C65.68 -1.21, 131.86 -1.39, 278.92 0.01 M278.53 0.75 C280.97 18.29, 280.95 32.53, 278.18 77.3 M279.38 -0.54 C278.99 18.55, 279.17 36.29, 278.3 78.45 M279.57 80.13 C168.45 76.29, 59.84 77.33, 1.13 78.08 M278.72 79.21 C167.73 79.29, 56.04 79.29, 0.2 78.58 M0.93 77.53 C1.45 47.38, 1.16 19.11, -0.43 0.17 M-0.92 78.87 C0.99 52.66, 0.03 25.86, -0.55 -0.66" stroke="#000000" stroke-width="1" fill="none"></path></g><g stroke-linecap="round" transform="translate(38.5 1229.25) rotate(0 139.5 39.5)"><path d="M0.71 -1.13 C108.97 -2.65, 217.2 -0.79, 278.67 0.13 M-0.7 -0.1 C93.07 0.5, 184.88 0.04, 278.58 -0.51 M280.21 -0.53 C279.53 20.5, 278.29 45.3, 277.65 79.64 M278.34 0.61 C279.45 19.15, 279.93 36.13, 279.59 79.98 M279.7 77.76 C189.16 78.24, 100.13 79.79, 1.22 80.18 M279.03 78.58 C189.32 80.87, 99.01 80.36, 0.51 79.47 M1 79.49 C-1.77 50.43, -1.94 18.01, 0.4 -0.25 M0.13 78.69 C-0.81 47.14, 0.17 16.17, 0.22 0.55" stroke="#000000" stroke-width="1" fill="none"></path></g><g stroke-linecap="round" transform="translate(41.5 1317.25) rotate(0 139.5 39.5)"><path d="M1.42 0.24 C100.93 -1.72, 200.52 -1.58, 279.92 0.45 M0.5 0.52 C105.86 -0.87, 211.64 -0.04, 278.35 -0.1 M279.76 -0.6 C280.49 29.49, 278.02 59.36, 277.36 77.91 M279.96 0.22 C279.03 24.96, 278.85 50.28, 279.93 79.36 M278.22 79.31 C188.87 78.75, 100.69 81.31, 0.16 80.44 M278.5 78.24 C198.29 78.02, 116.82 77.67, -0.26 79.74 M0.31 79.95 C-1.06 60.13, -1.39 39.09, -1.9 -1.69 M-0.78 79.25 C-0.13 52.45, 0.72 25.57, 0.12 0.16" stroke="#000000" stroke-width="1" fill="none"></path></g><g transform="translate(138 520.75) rotate(0 44.5 12.5)"><text x="0" y="18" font-family="Virgil, Segoe UI Emoji" font-size="20px" fill="#000000" text-anchor="start" style="white-space: pre;" direction="ltr">&lt;Header&gt;</text></g><g transform="translate(129.5 1051.25) rotate(0 44.5 12.5)"><text x="0" y="18" font-family="Virgil, Segoe UI Emoji" font-size="20px" fill="#000000" text-anchor="start" style="white-space: pre;" direction="ltr">&lt;Header&gt;</text></g><g transform="translate(131.5 1591.25) rotate(0 44.5 12.5)"><text x="0" y="18" font-family="Virgil, Segoe UI Emoji" font-size="20px" fill="#000000" text-anchor="start" style="white-space: pre;" direction="ltr">&lt;Header&gt;</text></g><g transform="translate(128.5 2129.25) rotate(0 44.5 12.5)"><text x="0" y="18" font-family="Virgil, Segoe UI Emoji" font-size="20px" fill="#000000" text-anchor="start" style="white-space: pre;" direction="ltr">&lt;Header&gt;</text></g><g stroke-linecap="round" transform="translate(13 550.75) rotate(0 168.5 27)"><path d="M0.12 0.29 C110.03 -1.61, 217.99 -1.84, 335.81 0.09 M335.72 1.28 C338.26 13.52, 337.95 27.44, 335.66 54.46 M337.76 53.33 C221.44 54.22, 102.91 54.74, 0.83 54.44 M-0.48 54.83 C-1.48 35.41, 0.53 19.63, -0.47 -1.18" stroke="#1864ab" stroke-width="1.5" fill="none" stroke-dasharray="8 9"></path></g><g transform="translate(358 567.75) rotate(0 55.5 12.5)"><text x="0" y="18" font-family="Virgil, Segoe UI Emoji" font-size="20px" fill="#1864ab" text-anchor="start" style="white-space: pre;" direction="ltr">&lt;Nav. Bar&gt;</text></g><g stroke-linecap="round" transform="translate(14 1081.75) rotate(0 168.5 27)"><path d="M-1.2 -0.18 C90.96 0.98, 180.65 1.95, 336.55 1.18 M335.83 0.81 C335.46 16.03, 338.67 35.38, 338.26 53.06 M338 54.9 C246.68 55.03, 155.08 54.26, 0.45 55.19 M-1.22 52.32 C1.57 39.14, 0.63 26.53, 0.41 -1.19" stroke="#1864ab" stroke-width="1.5" fill="none" stroke-dasharray="8 9"></path></g><g transform="translate(359 1098.75) rotate(0 55.5 12.5)"><text x="0" y="18" font-family="Virgil, Segoe UI Emoji" font-size="20px" fill="#1864ab" text-anchor="start" style="white-space: pre;" direction="ltr">&lt;Nav. Bar&gt;</text></g><g stroke-linecap="round" transform="translate(17 1623.75) rotate(0 168.5 27)"><path d="M1.01 -0.49 C124.48 1.32, 250.36 0.78, 336.05 0.51 M337.64 0.27 C336.75 15.72, 338.15 28.41, 336.85 55.94 M337.38 55.33 C255.64 53.29, 176.58 54.12, 0.62 54.78 M-1.24 55.39 C0.02 36.83, -1.75 16.24, -1.44 -1.85" stroke="#1864ab" stroke-width="1.5" fill="none" stroke-dasharray="8 9"></path></g><g transform="translate(362 1640.75) rotate(0 55.5 12.5)"><text x="0" y="18" font-family="Virgil, Segoe UI Emoji" font-size="20px" fill="#1864ab" text-anchor="start" style="white-space: pre;" direction="ltr">&lt;Nav. Bar&gt;</text></g><g stroke-linecap="round" transform="translate(10 2158.75) rotate(0 168.5 27)"><path d="M-0.94 0.96 C84.39 1.33, 167.66 1.28, 336.75 1.1 M338.93 -0.22 C335.17 13.88, 338.41 28.42, 337.18 52.53 M337.95 54.37 C229.64 56.43, 119.2 54.86, -0.64 53.4 M-0.5 55.25 C1.64 35.36, -1.42 18.96, 1.49 -1.53" stroke="#1864ab" stroke-width="1.5" fill="none" stroke-dasharray="8 9"></path></g><g transform="translate(355 2175.75) rotate(0 55.5 12.5)"><text x="0" y="18" font-family="Virgil, Segoe UI Emoji" font-size="20px" fill="#1864ab" text-anchor="start" style="white-space: pre;" direction="ltr">&lt;Nav. Bar&gt;</text></g><g transform="translate(120 1169.75) rotate(0 46 12.5)"><text x="0" y="18" font-family="Virgil, Segoe UI Emoji" font-size="20px" fill="#000000" text-anchor="start" style="white-space: pre;" direction="ltr">&lt;Article1&gt;</text></g><g transform="translate(121 1255.25) rotate(0 50.5 12.5)"><text x="0" y="18" font-family="Virgil, Segoe UI Emoji" font-size="20px" fill="#000000" text-anchor="start" style="white-space: pre;" direction="ltr">&lt;Article2&gt;</text></g><g transform="translate(120 1344.25) rotate(0 53 12.5)"><text x="0" y="18" font-family="Virgil, Segoe UI Emoji" font-size="20px" fill="#000000" text-anchor="start" style="white-space: pre;" direction="ltr">&lt;Article n&gt;</text></g><g transform="translate(50 1709.75) rotate(0 134.5 11.5)"><text x="134.5" y="17" font-family="Virgil, Segoe UI Emoji" font-size="20px" fill="#000000" text-anchor="middle" style="white-space: pre;" direction="ltr">&lt;Article n&gt;</text></g><g transform="translate(58 1792.75) rotate(0 126.5 11.5)"><text x="126.5" y="17" font-family="Virgil, Segoe UI Emoji" font-size="20px" fill="#000000" text-anchor="middle" style="white-space: pre;" direction="ltr">&lt;Comment 1&gt;</text></g><g transform="translate(57.5 1861.25) rotate(0 126.5 11.5)"><text x="126.5" y="17" font-family="Virgil, Segoe UI Emoji" font-size="20px" fill="#000000" text-anchor="middle" style="white-space: pre;" direction="ltr">&lt;Comment 2&gt;</text></g><g transform="translate(56.5 1931.25) rotate(0 126.5 11.5)"><text x="126.5" y="17" font-family="Virgil, Segoe UI Emoji" font-size="20px" fill="#000000" text-anchor="middle" style="white-space: pre;" direction="ltr">&lt;Comment n&gt;</text></g><g transform="translate(63 1988.75) rotate(0 69 12.147887323943678)"><text x="0" y="17.295774647887335" font-family="Virgil, Segoe UI Emoji" font-size="19.43661971830985px" fill="#000000" text-anchor="start" style="white-space: pre;" direction="ltr">&lt;CommentList&gt;</text></g><g transform="translate(129 1439.75) rotate(0 62.5 12.5)"><text x="0" y="18" font-family="Virgil, Segoe UI Emoji" font-size="20px" fill="#000000" text-anchor="start" style="white-space: pre;" direction="ltr">&lt;ArticleList&gt;</text></g><g stroke-linecap="round" transform="translate(60 2228.75) rotate(0 31.5 14)"><path d="M1.12 0.52 C18.56 -0.32, 41.17 -2.05, 62.15 -0.45 M0.82 0.55 C20.05 0.6, 40.39 1.47, 62.74 0.13 M63.94 1.1 C62.91 6.5, 61.73 16.64, 62.43 29.5 M63.56 -0.19 C64.09 10.41, 63.22 22.37, 63.68 27.04 M62.33 26.33 C40.24 27.69, 14.42 28.27, -1.99 29.99 M62.54 27.79 C44.55 27.19, 25.16 26.71, 0.83 27.71 M0.68 26.73 C-1.69 19.91, 2.09 16.13, 1.83 -0.26 M-0.9 28.99 C0.66 18.98, 0.89 9.52, -0.63 -0.59" stroke="#000000" stroke-width="1" fill="none"></path></g><g stroke-linecap="round" transform="translate(147.5 2229.75) rotate(0 31.5 14)"><path d="M-1.14 0.56 C14.91 -1.86, 27.99 -0.8, 63.9 0.39 M0.36 -0.16 C25.52 -0.23, 50.04 0.45, 63.6 0.3 M64.65 0.56 C61.83 11.52, 62.44 23.16, 61.97 29.25 M63.46 -0.24 C62.7 7.62, 62.36 14.41, 62.15 27.58 M62.69 28.49 C48.46 29.44, 36.08 29.53, -0.11 29.19 M62.42 27.07 C49.66 29.21, 36.96 28.64, 0 28.64 M0.47 27.28 C-1.51 19.97, 1.05 8.38, -1.65 1.19 M0.52 28.97 C-0.19 20.09, -0.33 14.15, -0.31 0.77" stroke="#000000" stroke-width="1" fill="none"></path></g><g stroke-linecap="round" transform="translate(239.5 2229.75) rotate(0 31.5 14)"><path d="M-0.1 0.11 C22.45 0.86, 42.98 1.66, 64.06 1.1 M0.17 -0.35 C24.5 -0.1, 48.83 -0.08, 62.2 0.02 M64.23 -0.84 C63.73 7.98, 62.1 17.94, 63.1 29.75 M63.45 0.96 C63.56 7.91, 63.66 15.04, 62.44 28.55 M64.73 28.82 C48.33 27.93, 33.76 28.74, 1.67 26.63 M63.75 28.64 C42.34 26.77, 22.84 27.07, -0.37 28.21 M-1.97 27.12 C-0.26 17.52, 1.27 8.56, 0.12 1.35 M-0.85 28.96 C0.42 21.94, 0.96 16.13, -0.15 0.63" stroke="#000000" stroke-width="1" fill="none"></path></g><g transform="translate(50.5 2293.75) rotate(0 133.5 11.5)"><text x="133.5" y="17" font-family="Virgil, Segoe UI Emoji" font-size="20px" fill="#000000" text-anchor="middle" style="white-space: pre;" direction="ltr">&lt;TopicCard&gt;</text></g><g stroke-linecap="round" transform="translate(10 2218.75) rotate(0 168.5 27)"><path d="M1.22 1 C126.06 -0.98, 249.37 -0.49, 337.47 0.06 M335.96 -1.46 C337.98 19.93, 337.61 39.42, 338.93 53.22 M338.22 53.38 C242.53 53.95, 147.08 55.01, 0.08 53.54 M-1.4 55.99 C-1.35 32.11, 0 12.29, 0.32 1.63" stroke="#1864ab" stroke-width="1.5" fill="none" stroke-dasharray="8 9"></path></g><g transform="translate(355 2235.75) rotate(0 56.5 12.5)"><text x="0" y="18" font-family="Virgil, Segoe UI Emoji" font-size="20px" fill="#1864ab" text-anchor="start" style="white-space: pre;" direction="ltr">&lt;TopicList&gt;</text></g><g stroke-linecap="round" transform="translate(53 2358) rotate(0 131.5 29.5)"><path d="M1.47 -0.47 C80.24 -0.04, 161.37 -1.11, 263.88 -0.21 M0.45 0.14 C96.23 0.8, 191.74 0.79, 262.23 -0.62 M264.71 -0.58 C264.56 12.69, 262.65 27.34, 261.76 58.18 M263.22 -0.88 C263.11 20.2, 263.4 40.35, 263.64 58.72 M262.98 60.21 C209.8 59.26, 152.4 58.94, 0.68 59.34 M262.44 59.37 C168.19 59.55, 72.28 59.51, 0.31 59.19 M1.07 57.75 C-0.06 39.76, 0.76 17.32, 1.04 0.56 M-0.91 58.9 C1.3 45.18, -0.26 33.98, -0.16 -0.47" stroke="#000000" stroke-width="1" fill="none"></path></g><g stroke-linecap="round" transform="translate(52 2428) rotate(0 131.5 29.5)"><path d="M-0.47 -1.01 C54.7 -3.06, 107.78 -1.06, 262.79 1.04 M0.14 0.19 C53.67 -1.54, 107.59 -1.97, 262.38 -0.54 M262.42 1.82 C262.31 15.04, 263.23 29.02, 262.18 60 M262.12 -0.26 C262.13 21.42, 261.62 43.42, 262.72 58.08 M264.21 60.42 C180.67 57.61, 97.88 59.66, 0.34 59.98 M263.37 59.37 C167.7 57.16, 72.81 57.83, 0.19 59.46 M-1.25 59.31 C1.5 38.77, 0.18 17.32, 0.56 -1.62 M-0.1 59.73 C-1.44 46.18, 0.28 34.87, -0.47 -0.33" stroke="#000000" stroke-width="1" fill="none"></path></g><g transform="translate(58 2376) rotate(0 126.5 11.5)"><text x="126.5" y="17" font-family="Virgil, Segoe UI Emoji" font-size="20px" fill="#000000" text-anchor="middle" style="white-space: pre;" direction="ltr">&lt;Article 1&gt;</text></g><g transform="translate(57 2446) rotate(0 126.5 11.5)"><text x="126.5" y="17" font-family="Virgil, Segoe UI Emoji" font-size="20px" fill="#000000" text-anchor="middle" style="white-space: pre;" direction="ltr">&lt;Article n&gt;</text></g><g transform="translate(116.5 2504.5) rotate(0 62.5 12.5)"><text x="0" y="18" font-family="Virgil, Segoe UI Emoji" font-size="20px" fill="#000000" text-anchor="start" style="white-space: pre;" direction="ltr">&lt;ArticleList&gt;</text></g><g transform="translate(661 509.75) rotate(0 17 12.5)"><text x="0" y="18" font-family="Virgil, Segoe UI Emoji" font-size="20px" fill="#000000" text-anchor="start" style="white-space: pre;" direction="ltr">app</text></g><g transform="translate(533 532.75) rotate(0 33.5 12.5)"><text x="0" y="18" font-family="Virgil, Segoe UI Emoji" font-size="20px" fill="#000000" text-anchor="start" style="white-space: pre;" direction="ltr">Header</text></g><g stroke-linecap="round"><g transform="translate(656 523.4376892736154) rotate(0 -26.53079808242154 14.432848289186495)"><path d="M-0.91 0.79 C-9.75 5.15, -45.22 22.93, -53.87 27.29 M0.81 0.15 C-7.57 5.22, -42.56 24.08, -51.61 28.71" stroke="#000000" stroke-width="1" fill="none"></path></g><g transform="translate(656 523.4376892736154) rotate(0 -26.53079808242154 14.432848289186495)"><path d="M-30.27 5.13 C-36.3 11.77, -41.45 17.61, -50.43 28.38 M-31.38 6.82 C-39.03 14.15, -46.95 24.36, -52.25 29.54" stroke="#000000" stroke-width="1" fill="none"></path></g><g transform="translate(656 523.4376892736154) rotate(0 -26.53079808242154 14.432848289186495)"><path d="M-20.73 23.19 C-29.09 25.65, -36.41 27.38, -50.43 28.38 M-21.84 24.87 C-33.27 25.32, -44.84 28.62, -52.25 29.54" stroke="#000000" stroke-width="1" fill="none"></path></g></g><g transform="translate(566 575.75) rotate(0 51 12.5)"><text x="0" y="18" font-family="Virgil, Segoe UI Emoji" font-size="20px" fill="#000000" text-anchor="start" style="white-space: pre;" direction="ltr">Navigation</text></g><g stroke-linecap="round"><g transform="translate(666.764801529201 542.75) rotate(0 -12.50977895150811 13.786894426634547)"><path d="M-0.15 -0.28 C-4.16 4.45, -20.23 23.16, -24.37 28.02 M-1.68 -1.48 C-5.76 3.41, -20.89 23.77, -24.87 29.05" stroke="#000000" stroke-width="1" fill="none"></path></g><g transform="translate(666.764801529201 542.75) rotate(0 -12.50977895150811 13.786894426634547)"><path d="M-19.75 12.02 C-22.46 16.15, -22.56 20.4, -23.07 28.08 M-18.36 10.47 C-21.71 16.85, -24.27 23.88, -24.97 29.51" stroke="#000000" stroke-width="1" fill="none"></path></g><g transform="translate(666.764801529201 542.75) rotate(0 -12.50977895150811 13.786894426634547)"><path d="M-9.23 19.91 C-14.84 21.83, -17.85 23.9, -23.07 28.08 M-7.84 18.36 C-15.07 21.82, -21.56 25.92, -24.97 29.51" stroke="#000000" stroke-width="1" fill="none"></path></g></g><g transform="translate(734 549.75) rotate(0 23.5 12.5)"><text x="0" y="18" font-family="Virgil, Segoe UI Emoji" font-size="20px" fill="#000000" text-anchor="start" style="white-space: pre;" direction="ltr">Body</text></g><g stroke-linecap="round"><g transform="translate(699.3035746947971 538.9308186813473) rotate(0 13.97155574552005 3.9331064434121004)"><path d="M0.09 -0.66 C5.13 0.73, 24.43 7.3, 29.26 8.53 M-1.32 1.6 C3.72 2.64, 23.78 5.8, 28.79 6.76" stroke="#000000" stroke-width="1" fill="none"></path></g><g transform="translate(699.3035746947971 538.9308186813473) rotate(0 13.97155574552005 3.9331064434121004)"><path d="M13.5 10.47 C18.33 9.68, 19.27 8.93, 27.79 6.67 M14.88 8.72 C18.03 8.54, 21.09 8.46, 28.87 6.17" stroke="#000000" stroke-width="1" fill="none"></path></g><g transform="translate(699.3035746947971 538.9308186813473) rotate(0 13.97155574552005 3.9331064434121004)"><path d="M15.22 0.55 C19.69 1.95, 20.24 3.38, 27.79 6.67 M16.6 -1.19 C19.35 1.15, 21.98 3.59, 28.87 6.17" stroke="#000000" stroke-width="1" fill="none"></path></g></g><g transform="translate(640 1032.25) rotate(0 17 12.5)"><text x="0" y="18" font-family="Virgil, Segoe UI Emoji" font-size="20px" fill="#000000" text-anchor="start" style="white-space: pre;" direction="ltr">app</text></g><g transform="translate(512 1055.25) rotate(0 33.5 12.5)"><text x="0" y="18" font-family="Virgil, Segoe UI Emoji" font-size="20px" fill="#000000" text-anchor="start" style="white-space: pre;" direction="ltr">Header</text></g><g stroke-linecap="round"><g transform="translate(635 1045.9376892736154) rotate(0 -26.166718542268484 14.055526061231603)"><path d="M-0.67 1.14 C-9.39 5.39, -43.89 22.18, -52.71 26.45 M1.17 0.69 C-7.64 4.97, -44.19 22.93, -53.51 27.42" stroke="#000000" stroke-width="1" fill="none"></path></g><g transform="translate(635 1045.9376892736154) rotate(0 -26.166718542268484 14.055526061231603)"><path d="M-30.87 6.43 C-39.85 10.47, -44.83 15.69, -52.06 25.58 M-32.29 6.57 C-38.94 13.09, -46.49 20.25, -54.3 28.24" stroke="#000000" stroke-width="1" fill="none"></path></g><g transform="translate(635 1045.9376892736154) rotate(0 -26.166718542268484 14.055526061231603)"><path d="M-21.92 24.79 C-33.4 23.93, -40.75 24.3, -52.06 25.58 M-23.34 24.93 C-33.21 25.03, -43.86 25.82, -54.3 28.24" stroke="#000000" stroke-width="1" fill="none"></path></g></g><g transform="translate(545 1098.25) rotate(0 51 12.5)"><text x="0" y="18" font-family="Virgil, Segoe UI Emoji" font-size="20px" fill="#000000" text-anchor="start" style="white-space: pre;" direction="ltr">Navigation</text></g><g stroke-linecap="round"><g transform="translate(645.7648015292011 1065.25) rotate(0 -12.778329475181295 14.14785521238582)"><path d="M0.29 -1.07 C-3.91 3.45, -21.45 23.07, -25.85 28.23 M-1.02 0.99 C-4.76 6.15, -19.68 24.86, -23.46 29.36" stroke="#000000" stroke-width="1" fill="none"></path></g><g transform="translate(645.7648015292011 1065.25) rotate(0 -12.778329475181295 14.14785521238582)"><path d="M-18.87 10.21 C-19.76 14.22, -18.67 18.31, -22.57 30.55 M-16.32 11.06 C-18.03 14.98, -20.72 20.35, -22.78 29.73" stroke="#000000" stroke-width="1" fill="none"></path></g><g transform="translate(645.7648015292011 1065.25) rotate(0 -12.778329475181295 14.14785521238582)"><path d="M-8.67 18.51 C-12.13 20.52, -13.52 22.58, -22.57 30.55 M-6.12 19.36 C-10.2 21.44, -15.24 24.91, -22.78 29.73" stroke="#000000" stroke-width="1" fill="none"></path></g></g><g transform="translate(713 1072.25) rotate(0 23.5 12.5)"><text x="0" y="18" font-family="Virgil, Segoe UI Emoji" font-size="20px" fill="#000000" text-anchor="start" style="white-space: pre;" direction="ltr">Body</text></g><g stroke-linecap="round"><g transform="translate(678.3035746947971 1061.4308186813473) rotate(0 14.54727768658887 3.972943666703486)"><path d="M-0.62 -0.77 C3.91 0.86, 22.82 7.19, 27.47 8.72 M1.25 1.44 C6.13 2.83, 25 6.23, 29.71 7.05" stroke="#000000" stroke-width="1" fill="none"></path></g><g transform="translate(678.3035746947971 1061.4308186813473) rotate(0 14.54727768658887 3.972943666703486)"><path d="M14.27 8.47 C21.01 7.47, 25.32 8.92, 28.67 7.74 M15.6 9.24 C19.87 9.28, 26.22 8.05, 29.28 7.04" stroke="#000000" stroke-width="1" fill="none"></path></g><g transform="translate(678.3035746947971 1061.4308186813473) rotate(0 14.54727768658887 3.972943666703486)"><path d="M16.05 -1.43 C22.12 0.77, 25.86 5.43, 28.67 7.74 M17.37 -0.66 C21.09 2.96, 26.8 5.32, 29.28 7.04" stroke="#000000" stroke-width="1" fill="none"></path></g></g><g transform="translate(722 1128.75) rotate(0 51.5 12.5)"><text x="0" y="18" font-family="Virgil, Segoe UI Emoji" font-size="20px" fill="#000000" text-anchor="start" style="white-space: pre;" direction="ltr">ArticleList</text></g><g stroke-linecap="round"><g transform="translate(754 1106.75) rotate(0 4.189677760004997 7.799519284805342)"><path d="M-0.91 0.59 C0.52 2.99, 7.66 11.93, 9.29 14.48 M0.81 -0.14 C2.06 2.4, 7.29 13.38, 8.5 15.74" stroke="#000000" stroke-width="1" fill="none"></path></g><g transform="translate(754 1106.75) rotate(0 4.189677760004997 7.799519284805342)"><path d="M2.63 9.89 C4.06 11.78, 7.34 14.62, 9.33 15.72 M2.58 10.03 C4.25 10.89, 5.99 13.19, 8.52 16.16" stroke="#000000" stroke-width="1" fill="none"></path></g><g transform="translate(754 1106.75) rotate(0 4.189677760004997 7.799519284805342)"><path d="M8 7.25 C7.52 10.05, 8.89 13.82, 9.33 15.72 M7.95 7.39 C8.16 9.03, 8.41 12.06, 8.52 16.16" stroke="#000000" stroke-width="1" fill="none"></path></g></g><g transform="translate(732 1209.75) rotate(0 55.5 12.5)"><text x="0" y="18" font-family="Virgil, Segoe UI Emoji" font-size="20px" fill="#000000" text-anchor="start" style="white-space: pre;" direction="ltr">ArticleCard</text></g><g stroke-linecap="round"><g transform="translate(789.1943491841055 1167.1892062982824) rotate(0 1.068003274885882 14.208446706524228)"><path d="M0.54 -0.34 C0.81 4.67, 2.36 23.95, 2.78 28.9 M-0.64 -1.56 C-0.56 3.68, 1.6 24.64, 2.17 29.98" stroke="#000000" stroke-width="1" fill="none"></path></g><g transform="translate(789.1943491841055 1167.1892062982824) rotate(0 1.068003274885882 14.208446706524228)"><path d="M-4.76 17.34 C-3 22.89, 0.14 26, 1.88 29.71 M-3.65 16.96 C-1.39 21.59, 0.6 26.54, 2.82 30.53" stroke="#000000" stroke-width="1" fill="none"></path></g><g transform="translate(789.1943491841055 1167.1892062982824) rotate(0 1.068003274885882 14.208446706524228)"><path d="M5.39 16.3 C3.16 22.31, 2.31 25.82, 1.88 29.71 M6.5 15.92 C4.88 20.87, 2.99 26.22, 2.82 30.53" stroke="#000000" stroke-width="1" fill="none"></path></g></g><g transform="translate(642.5 1572.5) rotate(0 17 12.5)"><text x="0" y="18" font-family="Virgil, Segoe UI Emoji" font-size="20px" fill="#000000" text-anchor="start" style="white-space: pre;" direction="ltr">app</text></g><g transform="translate(514.5 1595.5) rotate(0 33.5 12.5)"><text x="0" y="18" font-family="Virgil, Segoe UI Emoji" font-size="20px" fill="#000000" text-anchor="start" style="white-space: pre;" direction="ltr">Header</text></g><g stroke-linecap="round"><g transform="translate(637.5 1586.1876892736154) rotate(0 -25.962623951504952 14.445516809105243)"><path d="M-0.32 1.08 C-9.46 5.62, -44.99 24.04, -53.63 28.3 M1.71 0.59 C-7.13 5.33, -42.22 22.11, -51.25 26.59" stroke="#000000" stroke-width="1" fill="none"></path></g><g transform="translate(637.5 1586.1876892736154) rotate(0 -25.962623951504952 14.445516809105243)"><path d="M-28.7 4.07 C-37.27 15.01, -48.33 22.82, -53.21 27.52 M-29.67 4.44 C-38.77 12.3, -46.21 21.17, -52.02 25.99" stroke="#000000" stroke-width="1" fill="none"></path></g><g transform="translate(637.5 1586.1876892736154) rotate(0 -25.962623951504952 14.445516809105243)"><path d="M-19.77 22.43 C-32.04 26.05, -46.66 26.56, -53.21 27.52 M-20.73 22.8 C-33.04 23.62, -43.88 25.54, -52.02 25.99" stroke="#000000" stroke-width="1" fill="none"></path></g></g><g transform="translate(547.5 1638.5) rotate(0 51 12.5)"><text x="0" y="18" font-family="Virgil, Segoe UI Emoji" font-size="20px" fill="#000000" text-anchor="start" style="white-space: pre;" direction="ltr">Navigation</text></g><g stroke-linecap="round"><g transform="translate(648.2648015292011 1605.5) rotate(0 -11.82658798391384 14.655019973358208)"><path d="M-0.63 0.78 C-4.64 5.29, -20.35 23.59, -24.38 28.1 M1.23 0.15 C-2.83 5.29, -20.45 24.43, -24.89 29.16" stroke="#000000" stroke-width="1" fill="none"></path></g><g transform="translate(648.2648015292011 1605.5) rotate(0 -11.82658798391384 14.655019973358208)"><path d="M-16.19 12.79 C-20.77 16.9, -23.23 21.98, -23.37 27.39 M-17.64 10.71 C-18.63 15.02, -21.1 18.12, -25.2 28.53" stroke="#000000" stroke-width="1" fill="none"></path></g><g transform="translate(648.2648015292011 1605.5) rotate(0 -11.82658798391384 14.655019973358208)"><path d="M-6.54 21.72 C-13.83 23.34, -18.93 25.98, -23.37 27.39 M-8 19.64 C-11.04 22.04, -15.5 23.3, -25.2 28.53" stroke="#000000" stroke-width="1" fill="none"></path></g></g><g transform="translate(715.5 1612.5) rotate(0 23.5 12.5)"><text x="0" y="18" font-family="Virgil, Segoe UI Emoji" font-size="20px" fill="#000000" text-anchor="start" style="white-space: pre;" direction="ltr">Body</text></g><g stroke-linecap="round"><g transform="translate(680.8035746947971 1601.6808186813473) rotate(0 14.298315912627004 3.347452320876073)"><path d="M0.84 -0.9 C5.74 0.08, 24.09 5.06, 28.77 6.68 M-0.17 1.24 C4.66 2.25, 23.27 6.65, 28.04 7.6" stroke="#000000" stroke-width="1" fill="none"></path></g><g transform="translate(680.8035746947971 1601.6808186813473) rotate(0 14.298315912627004 3.347452320876073)"><path d="M12.35 10.05 C15.61 9.65, 21.81 7.12, 26.65 8.82 M13.61 9.53 C16.26 8.77, 19.96 8.27, 28.59 8.19" stroke="#000000" stroke-width="1" fill="none"></path></g><g transform="translate(680.8035746947971 1601.6808186813473) rotate(0 14.298315912627004 3.347452320876073)"><path d="M14.51 0.22 C17.3 2.26, 22.97 2.17, 26.65 8.82 M15.77 -0.3 C17.9 1.2, 21.1 2.97, 28.59 8.19" stroke="#000000" stroke-width="1" fill="none"></path></g></g><g transform="translate(724.5 1669) rotate(0 60 12.5)"><text x="0" y="18" font-family="Virgil, Segoe UI Emoji" font-size="20px" fill="#000000" text-anchor="start" style="white-space: pre;" direction="ltr">CommentList</text></g><g stroke-linecap="round"><g transform="translate(756.712587566067 1647) rotate(0 6.216698600154132 7.38777790367601)"><path d="M0.41 -1.17 C2.48 1.64, 11.4 13.44, 13.27 15.95 M-0.83 0.83 C1.05 3.39, 10.16 12.03, 12.61 14.32" stroke="#000000" stroke-width="1" fill="none"></path></g><g transform="translate(756.712587566067 1647) rotate(0 6.216698600154132 7.38777790367601)"><path d="M2.64 10.87 C7.68 10.92, 9.32 14.09, 11.94 14.12 M3.22 10.12 C5.46 10.96, 8.01 12.56, 13.05 13.98" stroke="#000000" stroke-width="1" fill="none"></path></g><g transform="translate(756.712587566067 1647) rotate(0 6.216698600154132 7.38777790367601)"><path d="M7.26 5.99 C10.56 7.86, 10.48 12.84, 11.94 14.12 M7.84 5.24 C9.06 7.17, 10.58 9.86, 13.05 13.98" stroke="#000000" stroke-width="1" fill="none"></path></g></g><g transform="translate(734.5 1750) rotate(0 64 12.5)"><text x="0" y="18" font-family="Virgil, Segoe UI Emoji" font-size="20px" fill="#000000" text-anchor="start" style="white-space: pre;" direction="ltr">CommentCard</text></g><g stroke-linecap="round"><g transform="translate(799.534672872999 1707.4392062982824) rotate(0 1.6981691581112273 14.991206284752138)"><path d="M0.56 0.95 C0.8 5.92, 1.3 23.97, 1.87 28.64 M-0.6 0.4 C-0.04 5.57, 3.28 24.68, 4 29.58" stroke="#000000" stroke-width="1" fill="none"></path></g><g transform="translate(799.534672872999 1707.4392062982824) rotate(0 1.6981691581112273 14.991206284752138)"><path d="M-2.11 15.14 C-2.39 22.09, 0.43 24.91, 2.86 29.9 M-3.53 16.03 C-0.65 21.06, 1.62 23.83, 4.27 29.61" stroke="#000000" stroke-width="1" fill="none"></path></g><g transform="translate(799.534672872999 1707.4392062982824) rotate(0 1.6981691581112273 14.991206284752138)"><path d="M8 13.51 C4.32 21.05, 3.76 24.42, 2.86 29.9 M6.57 14.4 C6.43 19.86, 5.68 23.12, 4.27 29.61" stroke="#000000" stroke-width="1" fill="none"></path></g></g><g transform="translate(816 1617.75) rotate(0 55.5 12.5)"><text x="0" y="18" font-family="Virgil, Segoe UI Emoji" font-size="20px" fill="#000000" text-anchor="start" style="white-space: pre;" direction="ltr">ArticleCard</text></g><g stroke-linecap="round"><g transform="translate(774 1632.75) rotate(0 17.70652241580649 -0.5864666025387351)"><path d="M0.54 -0.58 C6.69 -1.06, 30.14 -2.53, 36.06 -2.9 M-0.64 1.73 C5.52 1.47, 29.59 -0.8, 35.66 -1.31" stroke="#000000" stroke-width="1" fill="none"></path></g><g transform="translate(774 1632.75) rotate(0 17.70652241580649 -0.5864666025387351)"><path d="M18.91 7.68 C23.52 5.84, 27.29 3.97, 35.2 -1.46 M20.25 5.38 C23.75 3.63, 27.88 2.72, 36.05 -1.95" stroke="#000000" stroke-width="1" fill="none"></path></g><g transform="translate(774 1632.75) rotate(0 17.70652241580649 -0.5864666025387351)"><path d="M17.84 -4.28 C22.69 -3.41, 26.7 -2.56, 35.2 -1.46 M19.18 -6.58 C22.87 -5.39, 27.27 -3.35, 36.05 -1.95" stroke="#000000" stroke-width="1" fill="none"></path></g></g><g transform="translate(577.75 2072.5) rotate(0 17 12.5)"><text x="0" y="18" font-family="Virgil, Segoe UI Emoji" font-size="20px" fill="#000000" text-anchor="start" style="white-space: pre;" direction="ltr">app</text></g><g transform="translate(449.75 2095.5) rotate(0 33.5 12.5)"><text x="0" y="18" font-family="Virgil, Segoe UI Emoji" font-size="20px" fill="#000000" text-anchor="start" style="white-space: pre;" direction="ltr">Header</text></g><g stroke-linecap="round"><g transform="translate(572.75 2086.1876892736154) rotate(0 -27.038844159245457 14.060564951776996)"><path d="M0.07 0.66 C-9.07 5.22, -45.15 23.8, -54.14 28.16 M-1.36 -0.04 C-10.2 4.1, -43.69 21.75, -52.03 26.38" stroke="#000000" stroke-width="1" fill="none"></path></g><g transform="translate(572.75 2086.1876892736154) rotate(0 -27.038844159245457 14.060564951776996)"><path d="M-31.05 2.19 C-38 10.59, -47.35 18.29, -50.31 27.42 M-31.64 4.88 C-39.35 13.74, -47.01 21.84, -51.35 25.43" stroke="#000000" stroke-width="1" fill="none"></path></g><g transform="translate(572.75 2086.1876892736154) rotate(0 -27.038844159245457 14.060564951776996)"><path d="M-21.38 20.18 C-31.89 22.19, -44.68 23.48, -50.31 27.42 M-21.97 22.87 C-33.29 24.86, -44.68 26.03, -51.35 25.43" stroke="#000000" stroke-width="1" fill="none"></path></g></g><g transform="translate(482.75 2138.5) rotate(0 51 12.5)"><text x="0" y="18" font-family="Virgil, Segoe UI Emoji" font-size="20px" fill="#000000" text-anchor="start" style="white-space: pre;" direction="ltr">Navigation</text></g><g stroke-linecap="round"><g transform="translate(583.5148015292011 2105.5) rotate(0 -12.81517235013581 14.688332372745435)"><path d="M-1.14 0.65 C-5.5 5.25, -21.91 23.38, -26.09 28.28 M0.46 -0.06 C-3.53 4.63, -19.78 24.72, -23.83 29.44" stroke="#000000" stroke-width="1" fill="none"></path></g><g transform="translate(583.5148015292011 2105.5) rotate(0 -12.81517235013581 14.688332372745435)"><path d="M-16.32 9.96 C-20.39 15.2, -19.56 23.34, -22.18 28.16 M-16.76 12.2 C-19.12 18.64, -21.52 24.22, -23.02 29.74" stroke="#000000" stroke-width="1" fill="none"></path></g><g transform="translate(583.5148015292011 2105.5) rotate(0 -12.81517235013581 14.688332372745435)"><path d="M-6.2 18.36 C-13.41 20.94, -15.67 26.51, -22.18 28.16 M-6.64 20.59 C-12.88 23.93, -19.13 26.32, -23.02 29.74" stroke="#000000" stroke-width="1" fill="none"></path></g></g><g transform="translate(650.75 2112.5) rotate(0 23.5 12.5)"><text x="0" y="18" font-family="Virgil, Segoe UI Emoji" font-size="20px" fill="#000000" text-anchor="start" style="white-space: pre;" direction="ltr">Body</text></g><g stroke-linecap="round"><g transform="translate(616.0535746947971 2101.6808186813473) rotate(0 14.34059575795419 4.077544954545374)"><path d="M-0.86 -0.72 C3.89 0.65, 22.38 7.28, 27.36 8.88 M0.89 1.51 C6.1 2.51, 24.93 6.37, 29.54 7.3" stroke="#000000" stroke-width="1" fill="none"></path></g><g transform="translate(616.0535746947971 2101.6808186813473) rotate(0 14.34059575795419 4.077544954545374)"><path d="M14.11 8.25 C19.22 9.9, 22.2 7.71, 30.71 8.05 M15.45 9.77 C20.98 7.83, 26.6 7.93, 29.42 7.73" stroke="#000000" stroke-width="1" fill="none"></path></g><g transform="translate(616.0535746947971 2101.6808186813473) rotate(0 14.34059575795419 4.077544954545374)"><path d="M16.11 -1.61 C20.87 2.04, 23.44 1.87, 30.71 8.05 M17.45 -0.09 C22.29 1.71, 27.15 5.54, 29.42 7.73" stroke="#000000" stroke-width="1" fill="none"></path></g></g><g transform="translate(659.75 2169) rotate(0 51.5 12.5)"><text x="0" y="18" font-family="Virgil, Segoe UI Emoji" font-size="20px" fill="#000000" text-anchor="start" style="white-space: pre;" direction="ltr">ArticleList</text></g><g stroke-linecap="round"><g transform="translate(685.4974880359805 2147) rotate(0 5.681240997916007 8.277323760534728)"><path d="M-1 1.03 C1.2 3.82, 10.37 13.54, 12.36 16.03 M0.67 0.53 C2.85 3.07, 9.62 12.18, 11.74 14.45" stroke="#000000" stroke-width="1" fill="none"></path></g><g transform="translate(685.4974880359805 2147) rotate(0 5.681240997916007 8.277323760534728)"><path d="M4.35 10.12 C6.19 10.16, 8.01 12.38, 12.49 15.03 M3.85 9.18 C7.15 11.62, 9.87 13.62, 11.64 14.68" stroke="#000000" stroke-width="1" fill="none"></path></g><g transform="translate(685.4974880359805 2147) rotate(0 5.681240997916007 8.277323760534728)"><path d="M9.37 5.97 C10.04 6.92, 10.71 10.08, 12.49 15.03 M8.87 5.02 C10.25 9.1, 11.01 12.72, 11.64 14.68" stroke="#000000" stroke-width="1" fill="none"></path></g></g><g transform="translate(669.75 2251) rotate(0 55.5 12.5)"><text x="0" y="18" font-family="Virgil, Segoe UI Emoji" font-size="20px" fill="#000000" text-anchor="start" style="white-space: pre;" direction="ltr">ArticleCard</text></g><g stroke-linecap="round"><g transform="translate(722.1638309846394 2207.4392062982824) rotate(0 2.9242128012438116 16.123275040085446)"><path d="M0.63 1.03 C1.47 6.14, 3.25 26.61, 4.06 31.72 M-0.51 0.52 C0.81 5.84, 5.43 25.21, 6.35 30.1" stroke="#000000" stroke-width="1" fill="none"></path></g><g transform="translate(722.1638309846394 2207.4392062982824) rotate(0 2.9242128012438116 16.123275040085446)"><path d="M-0.63 15.9 C1.19 20.54, 2.97 23.55, 7.74 31.07 M-1.31 17.17 C0.82 21.94, 3.61 26.35, 7.13 30.21" stroke="#000000" stroke-width="1" fill="none"></path></g><g transform="translate(722.1638309846394 2207.4392062982824) rotate(0 2.9242128012438116 16.123275040085446)"><path d="M9.78 13.64 C9.37 18.82, 8.89 22.32, 7.74 31.07 M9.1 14.91 C7.71 20.35, 6.96 25.53, 7.13 30.21" stroke="#000000" stroke-width="1" fill="none"></path></g></g><g transform="translate(751.25 2117.75) rotate(0 45.5 12.5)"><text x="0" y="18" font-family="Virgil, Segoe UI Emoji" font-size="20px" fill="#000000" text-anchor="start" style="white-space: pre;" direction="ltr">TopicList</text></g><g stroke-linecap="round"><g transform="translate(709.25 2132.5570176890405) rotate(0 17.410425421595505 -1.4603609712678463)"><path d="M-0.8 0.95 C5.04 0.41, 29.53 -1.73, 35.62 -2.24 M0.99 0.41 C6.66 0.06, 29.26 -3.16, 34.99 -3.87" stroke="#000000" stroke-width="1" fill="none"></path></g><g transform="translate(709.25 2132.5570176890405) rotate(0 17.410425421595505 -1.4603609712678463)"><path d="M20.82 5.17 C26.21 2.59, 31.88 -0.27, 35.69 -2.68 M19.27 4.78 C22.36 2.99, 26.63 1, 35.6 -3.6" stroke="#000000" stroke-width="1" fill="none"></path></g><g transform="translate(709.25 2132.5570176890405) rotate(0 17.410425421595505 -1.4603609712678463)"><path d="M19.23 -6.74 C25.28 -5.12, 31.51 -3.78, 35.69 -2.68 M17.68 -7.13 C21.2 -6.48, 25.79 -6.02, 35.6 -3.6" stroke="#000000" stroke-width="1" fill="none"></path></g></g><g transform="translate(895 2111.75) rotate(0 44.5 12.5)"><text x="0" y="18" font-family="Virgil, Segoe UI Emoji" font-size="20px" fill="#000000" text-anchor="start" style="white-space: pre;" direction="ltr">TopicTile</text></g><g transform="translate(810 2170.75) rotate(0 49.5 12.5)"><text x="0" y="18" font-family="Virgil, Segoe UI Emoji" font-size="20px" fill="#000000" text-anchor="start" style="white-space: pre;" direction="ltr">TopicCard</text></g><g stroke-linecap="round"><g transform="translate(711 2140.75) rotate(0 53.98599873774219 12.200352074797365)"><path d="M0.43 -0.92 C18.47 3.25, 90.78 19.61, 108.77 23.86 M-0.8 1.21 C17.01 5.68, 89.7 21.78, 107.71 25.32" stroke="#000000" stroke-width="1" fill="none"></path></g><g transform="translate(711 2140.75) rotate(0 53.98599873774219 12.200352074797365)"><path d="M76.47 29.14 C88.06 26.9, 99.46 25.31, 108.95 25.01 M78.55 28.63 C86.46 29.29, 92.47 26.65, 107.78 24.94" stroke="#000000" stroke-width="1" fill="none"></path></g><g transform="translate(711 2140.75) rotate(0 53.98599873774219 12.200352074797365)"><path d="M80.72 9.07 C90.65 13.77, 100.58 19.12, 108.95 25.01 M82.8 8.56 C89.61 14.31, 94.53 16.81, 107.78 24.94" stroke="#000000" stroke-width="1" fill="none"></path></g></g><g stroke-linecap="round"><g transform="translate(853 2134.75) rotate(0 15.911537789036515 -4.2103481283832025)"><path d="M0.84 1.12 C6.05 -0.34, 26.9 -6.32, 32 -7.96 M-0.18 0.67 C4.8 -1.18, 25.96 -8.22, 31.05 -9.54" stroke="#000000" stroke-width="1" fill="none"></path></g><g transform="translate(853 2134.75) rotate(0 15.911537789036515 -4.2103481283832025)"><path d="M19.31 0.43 C23.96 -4.04, 27.71 -6.05, 31.37 -11.2 M17.69 0.6 C22.52 -3.41, 27.43 -7.16, 30.78 -9.29" stroke="#000000" stroke-width="1" fill="none"></path></g><g transform="translate(853 2134.75) rotate(0 15.911537789036515 -4.2103481283832025)"><path d="M16.01 -10.45 C21.93 -10.99, 26.89 -9.04, 31.37 -11.2 M14.4 -10.28 C20.54 -10.22, 26.68 -9.92, 30.78 -9.29" stroke="#000000" stroke-width="1" fill="none"></path></g></g><g transform="translate(777 607.75) rotate(0 84.5 12.5)"><text x="0" y="18" font-family="Virgil, Segoe UI Emoji" font-size="20px" fill="#000000" text-anchor="start" style="white-space: pre;" direction="ltr">Welcome Message</text></g><g stroke-linecap="round"><g transform="translate(774 584.75) rotate(0 26.559925371338636 7.143554724296564)"><path d="M0.35 -0.01 C9.5 2.4, 45.07 11.52, 54.05 13.88 M-0.93 -1.06 C8.14 1.6, 44.05 12.59, 53.12 15.35" stroke="#000000" stroke-width="1" fill="none"></path></g><g transform="translate(774 584.75) rotate(0 26.559925371338636 7.143554724296564)"><path d="M25.25 16.9 C31.46 16.71, 38.27 17.92, 54.07 15.44 M24.98 16.55 C30.49 16.91, 36.28 16.69, 52.96 15.2" stroke="#000000" stroke-width="1" fill="none"></path></g><g transform="translate(774 584.75) rotate(0 26.559925371338636 7.143554724296564)"><path d="M30.82 -1.35 C35.66 2.67, 41.19 8.05, 54.07 15.44 M30.54 -1.7 C34.8 2.39, 39.44 5.94, 52.96 15.2" stroke="#000000" stroke-width="1" fill="none"></path></g></g><g transform="translate(98 717.75) rotate(0 95.5 12.5)"><text x="0" y="18" font-family="Virgil, Segoe UI Emoji" font-size="20px" fill="#000000" text-anchor="start" style="white-space: pre;" direction="ltr">&lt;Welcome Message&gt;</text></g><g stroke-linecap="round" transform="translate(40 611.75) rotate(0 140 173)"><path d="M1.03 0.68 C109.31 -2.02, 217.95 -1.29, 280.54 -1.07 M-0.45 0.47 C108.1 0.85, 216.33 0.77, 280.05 -0.51 M278.87 0.26 C278.63 128.63, 278.53 258.96, 278.99 347.23 M280.59 0.63 C280.05 104.6, 279.8 210.19, 279.88 346.05 M280.02 346.58 C221.47 346.03, 165.59 346.95, -0.04 347.49 M279.62 346.45 C173.26 347.64, 67.55 347.07, -0.06 345.43 M-1.28 346.43 C-1.29 269.65, -0.8 194.76, -0.19 0.78 M0.62 346.03 C-1.89 229.58, -1.6 112.53, -0.21 0.28" stroke="#000000" stroke-width="1" fill="none"></path></g><g transform="translate(835.4459419250488 1127.6283798217773) rotate(0 48.5 12.5)"><text x="0" y="18" font-family="Virgil, Segoe UI Emoji" font-size="20px" fill="#a61e4d" text-anchor="start" style="white-space: pre;" direction="ltr">{articles}</text></g><g transform="translate(738.9459419250488 1588.1283798217773) rotate(0 48.5 12.5)"><text x="0" y="18" font-family="Virgil, Segoe UI Emoji" font-size="20px" fill="#a61e4d" text-anchor="start" style="white-space: pre;" direction="ltr">{articles}</text></g><g transform="translate(874.4459419250488 1664.6283798217773) rotate(0 55.5 12.5)"><text x="0" y="18" font-family="Virgil, Segoe UI Emoji" font-size="20px" fill="#a61e4d" text-anchor="start" style="white-space: pre;" direction="ltr">{comments}</text></g><g stroke-linecap="round" transform="translate(217.44594192504883 1977.6283798217773) rotate(0 46.5 25)"><path d="M1.62 -0.27 C21.15 1.95, 39.18 0.18, 92.82 -1.8 M-0.09 -0.91 C33.24 0.08, 67.28 -0.48, 93.69 0.53 M92.29 -1.32 C94.49 10.16, 92.18 20.57, 93.25 51.69 M93.96 0.04 C93.09 18.9, 93.45 36.36, 92.27 50.31 M91.95 49.1 C66.3 50.49, 39.91 48.23, 1.75 51.84 M92.51 50.73 C59.66 49.96, 26.74 50.37, 0.3 50.94 M0.81 48.72 C0.62 34.45, -1.61 23.21, -1.28 -0.58 M-0.28 49.71 C-0.13 33.89, 1.16 17.67, -0.29 0.58" stroke="#000000" stroke-width="1" fill="none"></path></g><g transform="translate(222.44594192504883 1982.6283798217773) rotate(0 41.5 20)"><text x="41.5" y="14" font-family="Virgil, Segoe UI Emoji" font-size="16px" fill="#000000" text-anchor="middle" style="white-space: pre;" direction="ltr">&lt;Add </text><text x="41.5" y="34" font-family="Virgil, Segoe UI Emoji" font-size="16px" fill="#000000" text-anchor="middle" style="white-space: pre;" direction="ltr">Comment&gt;</text></g><g transform="translate(902.4459419250488 1739.1283798217773) rotate(0 64 12.5)"><text x="0" y="18" font-family="Virgil, Segoe UI Emoji" font-size="20px" fill="#000000" text-anchor="start" style="white-space: pre;" direction="ltr">Add Comment</text></g><g stroke-linecap="round"><g transform="translate(836.8663727250553 1703.6283798217773) rotate(0 44.0589023056134 13.9743521216418)"><path d="M-0.14 -0.34 C14.81 4.44, 75.01 23.15, 89.79 27.99 M-1.67 -1.57 C13.15 3.48, 73.68 24.8, 89.14 29.52" stroke="#000000" stroke-width="1" fill="none"></path></g><g transform="translate(836.8663727250553 1703.6283798217773) rotate(0 44.0589023056134 13.9743521216418)"><path d="M58.58 31.31 C68.43 28.97, 78.92 29.37, 90.7 27.92 M58.63 29.57 C67.29 29.19, 74.11 30.8, 88.48 28.69" stroke="#000000" stroke-width="1" fill="none"></path></g><g transform="translate(836.8663727250553 1703.6283798217773) rotate(0 44.0589023056134 13.9743521216418)"><path d="M65.04 11.83 C72.77 15.52, 81.26 21.96, 90.7 27.92 M65.09 10.09 C72.02 14.63, 77.22 21.14, 88.48 28.69" stroke="#000000" stroke-width="1" fill="none"></path></g></g><g transform="translate(603.9459419250488 2151.1283798217773) rotate(0 48.5 12.5)"><text x="0" y="18" font-family="Virgil, Segoe UI Emoji" font-size="20px" fill="#a61e4d" text-anchor="start" style="white-space: pre;" direction="ltr">{articles}</text></g><g transform="translate(719.9459419250488 2085.1283798217773) rotate(0 40 12.5)"><text x="0" y="18" font-family="Virgil, Segoe UI Emoji" font-size="20px" fill="#a61e4d" text-anchor="start" style="white-space: pre;" direction="ltr">{topics}</text></g><g stroke-linecap="round" transform="translate(27.722970962524414 2646.6283798217773) rotate(0 156.5 236.5)"><path d="M-1.32 0.32 C118.69 1.42, 240.41 0.4, 312.38 1.07 M0.49 -0.39 C73.87 1.68, 149.21 0.78, 312.64 0.12 M313.27 0.69 C315.79 117.1, 315.64 233.31, 313.08 472.9 M313.19 0.34 C311.4 180.17, 311.59 360.72, 313.44 473.07 M314.32 472.34 C201.15 472.94, 89.2 474.61, -0.31 473.17 M313.53 472.64 C211.14 474.46, 109.73 475.22, -0.18 473.04 M-0.11 472.9 C0.08 306.73, -0.79 139.74, -0.33 0.16 M-0.04 473.18 C0.49 324.49, 0.72 176.43, -0.39 0.06" stroke="#000000" stroke-width="1" fill="none"></path></g><g stroke-linecap="round" transform="translate(35.722970962524414 2655.6283798217773) rotate(0 148.5 21)"><path d="M0.33 -0.91 C108.96 3.35, 217.09 1.4, 298.11 -0.93 M-0.41 -0.41 C85.39 -0.82, 169.35 -1.9, 297.12 -0.39 M298.56 1.99 C298.16 18.05, 297.24 32.99, 296.78 43.62 M297.76 0.43 C296.8 9.87, 297.5 19.03, 297.16 42.56 M296.31 41.61 C227.47 43.13, 160.84 43.71, 0.17 42.35 M296.63 41.5 C196.84 43.11, 97.8 43.46, 0.04 42.38 M-0.22 43.6 C-0.07 27.78, -1.44 13.54, 0.36 0.27 M0.42 42.44 C-0.56 30.94, -0.23 17.09, 0.12 -0.47" stroke="#000000" stroke-width="1" fill="none"></path></g><g stroke-linecap="round" transform="translate(35.722970962524414 2705.6283798217773) rotate(0 149 15)"><path d="M-0.91 -0.24 C68.55 -1.8, 133.86 0.62, 297.08 -0.21 M-0.41 0.49 C74.03 0.77, 146.27 1.33, 297.61 0.67 M299.99 1.07 C299.73 9.83, 298.26 19.15, 299.62 28.3 M298.43 -0.18 C298.98 9.42, 299.11 17.99, 298.56 29.3 M297.61 28.84 C193.54 29.55, 90.54 29.15, 0.35 30.53 M297.5 29.65 C184.02 29.33, 70.91 28.94, 0.38 30.22 M1.6 30.26 C-0.32 17.56, -0.7 7.71, 0.27 -0.28 M0.44 29.31 C0.98 21.54, -0.85 13.91, -0.47 0.17" stroke="#000000" stroke-width="1" fill="none"></path></g><g stroke-linecap="round" transform="translate(43.722970962524414 2712.6283798217773) rotate(0 28 8)"><path d="M-0.33 1.77 C9.82 -0.52, 24.7 -0.91, 55.72 -1.08 M0.67 0.95 C20.09 -0.2, 41.54 -0.22, 56.91 0.23 M56.85 1.31 C56.24 5.43, 55.95 11.87, 54.64 15.95 M55.85 0.68 C56.53 6.25, 56.25 11.38, 55.44 16.38 M54.42 14.79 C34.8 15.42, 12.28 16.33, 0.72 17.61 M55.53 15.28 C35.6 15.37, 14.09 16.14, 0.3 16.78 M0.21 15.71 C-0.87 10.81, 0.31 7.02, -0.22 -0.48 M-0.55 16.76 C-0.35 10.63, 0.03 6.29, 0.14 0.36" stroke="#000000" stroke-width="1" fill="none"></path></g><g stroke-linecap="round" transform="translate(116.72297096252441 2711.6283798217773) rotate(0 28 8)"><path d="M1.77 -1.77 C17.19 1.6, 34.86 -0.19, 54.92 1.39 M0.95 -0.6 C13.2 -0.21, 26.89 0.53, 56.23 0.31 M57.31 0.11 C56.3 5.87, 57.46 10.73, 55.95 16.67 M56.68 0.41 C56.86 6.14, 56.52 11.46, 56.38 16.74 M54.79 16.78 C41.37 15.79, 28.09 16.28, 1.61 17.5 M55.28 16.59 C41.76 15.8, 28.54 16.04, 0.78 15.87 M-0.29 15.11 C-0.72 11.67, 0.09 6.54, -0.48 -0.13 M0.76 15.72 C-0.77 10.63, -0.44 5.21, 0.36 -0.66" stroke="#000000" stroke-width="1" fill="none"></path></g><g stroke-linecap="round" transform="translate(192.7229709625244 2711.6283798217773) rotate(0 28 8)"><path d="M-1.77 -0.87 C14.85 -1.75, 26.39 -1.57, 57.39 -1.1 M-0.6 -0.51 C13.85 -1.07, 28.28 -0.31, 56.31 0.78 M56.11 0.14 C55.91 7.69, 54.72 12.74, 56.67 17.21 M56.41 0.79 C56.1 5.94, 55.41 11.37, 56.74 15.63 M56.78 15.57 C40.93 16.14, 26.11 17.28, 1.5 15 M56.59 15.75 C43.08 16.11, 30.33 16.37, -0.13 15.89 M-0.89 15.41 C0.27 10.13, -0.24 3.36, -0.13 0.66 M-0.28 15.3 C0.21 10.12, 0.25 5.33, -0.66 0.42" stroke="#000000" stroke-width="1" fill="none"></path></g><g stroke-linecap="round" transform="translate(265.7229709625244 2709.6283798217773) rotate(0 28 8)"><path d="M-0.87 1.51 C14.62 0.21, 30.67 1.88, 54.9 -1.11 M-0.51 0.16 C20 1.24, 41.3 0.64, 56.78 0.99 M56.14 -0.18 C57.43 4.29, 56.09 11.97, 57.21 16.7 M56.79 0.13 C56.59 3.95, 56.52 9.75, 55.63 15.79 M55.57 16.23 C44.1 16.94, 32.86 17.71, -1 14.64 M55.75 16.06 C42.34 16.63, 28.42 16.2, -0.11 16.8 M-0.59 16.29 C0.24 10.77, -0.45 5.85, 0.66 0.71 M-0.7 16.1 C-0.53 12.44, 0.2 7.94, 0.42 -0.21" stroke="#000000" stroke-width="1" fill="none"></path></g><g stroke-linecap="round" transform="translate(35.722970962524414 2742.6283798217773) rotate(0 148.5 183.5)"><path d="M1.11 -0.93 C115.18 0.15, 231.8 0.14, 296.18 0.98 M0.12 -0.39 C118.13 1.29, 235.15 1.7, 297.73 0.39 M296.86 1.01 C296.1 140.16, 297.68 281.32, 297.54 366.77 M297.1 0.35 C297.73 141.67, 298.74 282.45, 296.83 366.51 M297.17 367.35 C226.41 367.72, 155.86 365.79, -1.01 366.31 M297.04 367.38 C229.5 367.03, 161.46 366.37, 0.59 367.1 M0.22 367.17 C1.1 263.14, 1.17 160.53, 0.55 -0.86 M0.08 366.71 C0.92 222.14, 0.3 77.06, -0.17 -0.25" stroke="#000000" stroke-width="1" fill="none"></path></g><g transform="translate(32.722970962524414 2607.6283798217773) rotate(0 38.5 12.5)"><text x="0" y="18" font-family="Virgil, Segoe UI Emoji" font-size="20px" fill="#000000" text-anchor="start" style="white-space: pre;" direction="ltr">"/users"</text></g><g stroke-linecap="round" transform="translate(42.722970962524414 2752.8783798217773) rotate(0 139.5 39.5)"><path d="M-0.22 -0.83 C72.68 0.5, 142.36 2.37, 280.47 -0.91 M0.7 0.18 C69.63 1.74, 139.56 1.55, 279.63 0.06 M277.3 -0.06 C279.75 25.89, 279.78 48.39, 280.7 80.02 M278.3 0.48 C280.05 31.01, 278.86 62.17, 278.39 79.39 M279.55 80.24 C202.47 78.74, 122.6 78.79, -1.11 79.9 M279.23 79.6 C202.12 80.02, 126.06 80.21, -0.14 78.57 M-0.28 78.4 C-0.31 59.06, 0.75 36.09, 1.91 -0.71 M0.17 79.44 C-0.92 62.76, -0.37 45.07, 0.89 -0.6" stroke="#000000" stroke-width="1" fill="none"></path></g><g stroke-linecap="round" transform="translate(41.722970962524414 2839.8783798217773) rotate(0 139.5 39.5)"><path d="M-0.83 1.07 C103.92 -0.55, 210.55 1.77, 278.09 -0.79 M0.18 0.23 C88.87 -1.18, 176.96 -1.31, 279.06 0.07 M278.94 0.83 C281.15 23.7, 279.27 47.37, 280.02 80.97 M279.48 0.92 C278.98 24.71, 278.65 49.35, 279.39 78.78 M280.24 80.15 C191.27 78.73, 104.36 78.67, 0.9 78.62 M279.6 78.9 C193.54 80.26, 108.35 79.5, -0.43 78.71 M-0.6 78.83 C0.73 54.77, -1.48 30.66, -0.71 -1.76 M0.44 78.18 C0.89 54.05, -0.04 30.53, -0.6 -0.58" stroke="#000000" stroke-width="1" fill="none"></path></g><g stroke-linecap="round" transform="translate(44.722970962524414 2927.8783798217773) rotate(0 139.5 39.5)"><path d="M1.07 -0.85 C65.34 2.18, 133.86 0.24, 278.21 0.25 M0.23 0.6 C69.56 -0.08, 138.21 -0.43, 279.07 -0.08 M279.83 1.51 C279.2 29.74, 280.03 61.23, 280.97 79.32 M279.92 -0.47 C278.18 27.34, 277.84 56.66, 278.78 79.12 M280.15 78.23 C187.59 80.01, 97.17 81.63, -0.38 79.09 M278.9 78.91 C181.47 80.76, 82.58 80.23, -0.29 79.14 M-0.17 79.83 C1 52.87, 2.02 28.78, -1.76 0.25 M-0.82 79.52 C-0.4 58.57, 0.76 38.36, -0.58 0.37" stroke="#000000" stroke-width="1" fill="none"></path></g><g transform="translate(132.7229709625244 2661.8783798217773) rotate(0 44.5 12.5)"><text x="0" y="18" font-family="Virgil, Segoe UI Emoji" font-size="20px" fill="#000000" text-anchor="start" style="white-space: pre;" direction="ltr">&lt;Header&gt;</text></g><g stroke-linecap="round" transform="translate(17.222970962524414 2692.3783798217773) rotate(0 168.5 27)"><path d="M-0.75 0.9 C84.2 0.45, 165.15 1.47, 336.28 1.22 M338.99 1.07 C338.8 17.58, 337.34 34.65, 338.62 52.3 M337.58 53.75 C238.01 56.4, 138.06 55.93, 0.75 53.06 M-0.53 52.42 C-1.71 36.01, -0.93 16.7, 0.48 0.72" stroke="#1864ab" stroke-width="1.5" fill="none" stroke-dasharray="8 9"></path></g><g transform="translate(362.2229709625244 2709.3783798217773) rotate(0 55.5 12.5)"><text x="0" y="18" font-family="Virgil, Segoe UI Emoji" font-size="20px" fill="#1864ab" text-anchor="start" style="white-space: pre;" direction="ltr">&lt;Nav. Bar&gt;</text></g><g transform="translate(123.22297096252441 2780.3783798217773) rotate(0 41.5 12.5)"><text x="0" y="18" font-family="Virgil, Segoe UI Emoji" font-size="20px" fill="#000000" text-anchor="start" style="white-space: pre;" direction="ltr">&lt;User 1&gt;</text></g><g transform="translate(124.22297096252441 2865.8783798217773) rotate(0 46 12.5)"><text x="0" y="18" font-family="Virgil, Segoe UI Emoji" font-size="20px" fill="#000000" text-anchor="start" style="white-space: pre;" direction="ltr">&lt;User 2&gt;</text></g><g transform="translate(123.22297096252441 2954.8783798217773) rotate(0 43.5 12.5)"><text x="0" y="18" font-family="Virgil, Segoe UI Emoji" font-size="20px" fill="#000000" text-anchor="start" style="white-space: pre;" direction="ltr">&lt;User n&gt;</text></g><g transform="translate(132.2229709625244 3050.3783798217773) rotate(0 53 12.5)"><text x="0" y="18" font-family="Virgil, Segoe UI Emoji" font-size="20px" fill="#000000" text-anchor="start" style="white-space: pre;" direction="ltr">&lt;UserList&gt;</text></g><g transform="translate(643.2229709625244 2642.8783798217773) rotate(0 17 12.5)"><text x="0" y="18" font-family="Virgil, Segoe UI Emoji" font-size="20px" fill="#000000" text-anchor="start" style="white-space: pre;" direction="ltr">app</text></g><g transform="translate(515.2229709625244 2665.8783798217773) rotate(0 33.5 12.5)"><text x="0" y="18" font-family="Virgil, Segoe UI Emoji" font-size="20px" fill="#000000" text-anchor="start" style="white-space: pre;" direction="ltr">Header</text></g><g stroke-linecap="round"><g transform="translate(638.2229709625244 2656.566069095393) rotate(0 -26.150583408321268 13.909762377842753)"><path d="M1.09 0.27 C-7.72 5.12, -43.82 23.8, -52.63 28.45 M0.2 -0.63 C-8.75 3.95, -44.7 22.35, -53.39 26.81" stroke="#000000" stroke-width="1" fill="none"></path></g><g transform="translate(638.2229709625244 2656.566069095393) rotate(0 -26.150583408321268 13.909762377842753)"><path d="M-32.62 5.54 C-38.06 14.03, -44.98 20.6, -53.25 26.99 M-33.11 5.35 C-38.01 11.52, -44.83 18.26, -52.88 27.8" stroke="#000000" stroke-width="1" fill="none"></path></g><g transform="translate(638.2229709625244 2656.566069095393) rotate(0 -26.150583408321268 13.909762377842753)"><path d="M-23.31 23.72 C-31.6 26.54, -41.46 27.36, -53.25 26.99 M-23.79 23.52 C-31.54 24.36, -41.04 25.85, -52.88 27.8" stroke="#000000" stroke-width="1" fill="none"></path></g></g><g transform="translate(548.2229709625244 2708.8783798217773) rotate(0 51 12.5)"><text x="0" y="18" font-family="Virgil, Segoe UI Emoji" font-size="20px" fill="#000000" text-anchor="start" style="white-space: pre;" direction="ltr">Navigation</text></g><g stroke-linecap="round"><g transform="translate(648.9877724917255 2675.8783798217773) rotate(0 -11.993486775261488 15.009382824669501)"><path d="M0.37 0.93 C-3.82 5.83, -19.93 24.95, -24.03 29.64 M-0.9 0.38 C-5.24 4.9, -20.42 22.84, -24.35 27.85" stroke="#000000" stroke-width="1" fill="none"></path></g><g transform="translate(648.9877724917255 2675.8783798217773) rotate(0 -11.993486775261488 15.009382824669501)"><path d="M-16.48 11.63 C-19.41 18.4, -22.78 24.07, -24.56 29.41 M-17.25 10.14 C-19.53 14.46, -20.23 18.48, -24.2 28.39" stroke="#000000" stroke-width="1" fill="none"></path></g><g transform="translate(648.9877724917255 2675.8783798217773) rotate(0 -11.993486775261488 15.009382824669501)"><path d="M-6.32 19.97 C-13.23 23.51, -20.58 25.93, -24.56 29.41 M-7.09 18.48 C-11.55 21.05, -14.43 23.28, -24.2 28.39" stroke="#000000" stroke-width="1" fill="none"></path></g></g><g transform="translate(716.2229709625244 2682.8783798217773) rotate(0 23.5 12.5)"><text x="0" y="18" font-family="Virgil, Segoe UI Emoji" font-size="20px" fill="#000000" text-anchor="start" style="white-space: pre;" direction="ltr">Body</text></g><g stroke-linecap="round"><g transform="translate(681.5265456573215 2672.059198503124) rotate(0 14.852277189411666 4.722445419249652)"><path d="M1.19 0.64 C6.02 1.81, 24.8 6.75, 29.34 7.93 M0.36 -0.07 C5.09 1.23, 24.35 8.01, 28.91 9.52" stroke="#000000" stroke-width="1" fill="none"></path></g><g transform="translate(681.5265456573215 2672.059198503124) rotate(0 14.852277189411666 4.722445419249652)"><path d="M14.99 11.01 C19.17 9.69, 23.76 10.66, 27.66 9.47 M14.07 10.43 C19.6 10.37, 24.37 9.96, 28.4 9.87" stroke="#000000" stroke-width="1" fill="none"></path></g><g transform="translate(681.5265456573215 2672.059198503124) rotate(0 14.852277189411666 4.722445419249652)"><path d="M18.24 1.49 C21.42 3.35, 24.94 7.47, 27.66 9.47 M17.32 0.91 C21.82 4.11, 25.47 6.96, 28.4 9.87" stroke="#000000" stroke-width="1" fill="none"></path></g></g><g transform="translate(725.2229709625244 2739.3783798217773) rotate(0 42 12.5)"><text x="0" y="18" font-family="Virgil, Segoe UI Emoji" font-size="20px" fill="#000000" text-anchor="start" style="white-space: pre;" direction="ltr">UserList</text></g><g stroke-linecap="round"><g transform="translate(749.9808800041126 2717.3783798217773) rotate(0 4.0355734969743935 7.711504502585285)"><path d="M0.98 0.09 C2.12 2.46, 6.71 12.55, 8.03 14.87 M0.04 -0.91 C0.93 1.59, 5.7 13.73, 7.14 16.34" stroke="#000000" stroke-width="1" fill="none"></path></g><g transform="translate(749.9808800041126 2717.3783798217773) rotate(0 4.0355734969743935 7.711504502585285)"><path d="M1.26 10.35 C3.51 13.34, 5.25 15.05, 7.49 16.98 M1.42 10.69 C3.3 12.55, 4.97 14.59, 7.53 16.14" stroke="#000000" stroke-width="1" fill="none"></path></g><g transform="translate(749.9808800041126 2717.3783798217773) rotate(0 4.0355734969743935 7.711504502585285)"><path d="M6.55 7.95 C6.7 11.94, 6.33 14.61, 7.49 16.98 M6.7 8.3 C6.76 11.02, 6.62 13.89, 7.53 16.14" stroke="#000000" stroke-width="1" fill="none"></path></g></g><g transform="translate(735.2229709625244 2820.3783798217773) rotate(0 46 12.5)"><text x="0" y="18" font-family="Virgil, Segoe UI Emoji" font-size="20px" fill="#000000" text-anchor="start" style="white-space: pre;" direction="ltr">UserCard</text></g><g stroke-linecap="round"><g transform="translate(778.3771470548977 2777.81758612006) rotate(0 1.8980583313137913 14.250708096465132)"><path d="M0.1 -0.13 C0.79 4.65, 4.43 23.68, 5.1 28.75 M-1.3 -1.25 C-0.77 3.64, 3.89 24.84, 4.66 29.75" stroke="#000000" stroke-width="1" fill="none"></path></g><g transform="translate(778.3771470548977 2777.81758612006) rotate(0 1.8980583313137913 14.250708096465132)"><path d="M-3.22 18.07 C-1.38 21.73, 3.48 27.83, 5.31 29.47 M-2.93 17.27 C-0.54 22.1, 3.65 26.36, 4.46 29.15" stroke="#000000" stroke-width="1" fill="none"></path></g><g transform="translate(778.3771470548977 2777.81758612006) rotate(0 1.8980583313137913 14.250708096465132)"><path d="M6.87 16.13 C4.86 20.54, 5.86 27.38, 5.31 29.47 M7.16 15.33 C5.67 21.01, 5.98 26.01, 4.46 29.15" stroke="#000000" stroke-width="1" fill="none"></path></g></g><g transform="translate(838.6689128875732 2738.2567596435547) rotate(0 37.5 12.5)"><text x="0" y="18" font-family="Virgil, Segoe UI Emoji" font-size="20px" fill="#a61e4d" text-anchor="start" style="white-space: pre;" direction="ltr">{users}</text></g></svg>